<mxfile host="Electron" modified="2023-06-07T07:03:55.471Z" agent="Mozilla/5.0 (Windows NT 10.0; Win64; x64) AppleWebKit/537.36 (KHTML, like Gecko) draw.io/21.2.8 Chrome/112.0.5615.165 Electron/24.2.0 Safari/537.36" etag="TCrYWyJv2FKVZ6pmw6Cu" version="21.2.8" type="device" pages="3">
  <diagram id="UMS9nKY7Dt_vSzlsI9hF" name="use_case1">
    <mxGraphModel dx="1036" dy="614" grid="0" gridSize="10" guides="1" tooltips="1" connect="1" arrows="1" fold="1" page="1" pageScale="1" pageWidth="850" pageHeight="1100" background="#FFFFFF" math="0" shadow="0">
      <root>
        <mxCell id="0" />
        <mxCell id="1" parent="0" />
        <mxCell id="NBNxKnKTJVCiCuv_H7LS-32" value="" style="rounded=0;whiteSpace=wrap;html=1;fillColor=none;strokeColor=#CDA2BE;movable=1;resizable=1;rotatable=1;deletable=1;editable=1;locked=0;connectable=1;" parent="1" vertex="1">
          <mxGeometry x="201" y="32" width="454" height="1198" as="geometry" />
        </mxCell>
        <mxCell id="bJMHT8rVgH3jV2KobR5U-136" value="" style="ellipse;whiteSpace=wrap;html=1;fillColor=none;" parent="1" vertex="1">
          <mxGeometry x="364.94" y="68" width="120" height="50" as="geometry" />
        </mxCell>
        <mxCell id="E0ZFKpVbwkk2b9CQsdlB-30" style="edgeStyle=none;html=1;entryX=0.5;entryY=0;entryDx=0;entryDy=0;exitX=0.5;exitY=1;exitDx=0;exitDy=0;dashed=1;" parent="1" source="bJMHT8rVgH3jV2KobR5U-136" target="bJMHT8rVgH3jV2KobR5U-150" edge="1">
          <mxGeometry relative="1" as="geometry">
            <mxPoint x="437.1" y="110" as="sourcePoint" />
          </mxGeometry>
        </mxCell>
        <mxCell id="bJMHT8rVgH3jV2KobR5U-146" value="UC01&lt;br&gt;User Sign up/in (UTM ID)" style="text;html=1;strokeColor=none;fillColor=none;align=center;verticalAlign=middle;whiteSpace=wrap;rounded=0;" parent="1" vertex="1">
          <mxGeometry x="381.38" y="78" width="93.24" height="30" as="geometry" />
        </mxCell>
        <mxCell id="bJMHT8rVgH3jV2KobR5U-150" value="" style="ellipse;whiteSpace=wrap;html=1;fillColor=none;movable=1;resizable=1;rotatable=1;deletable=1;editable=1;connectable=1;" parent="1" vertex="1">
          <mxGeometry x="367" y="150" width="120" height="50" as="geometry" />
        </mxCell>
        <mxCell id="bJMHT8rVgH3jV2KobR5U-151" value="UC02&lt;br&gt;Password setting" style="text;html=1;strokeColor=none;fillColor=none;align=center;verticalAlign=middle;whiteSpace=wrap;rounded=0;movable=1;resizable=1;rotatable=1;deletable=1;editable=1;connectable=1;" parent="1" vertex="1">
          <mxGeometry x="393" y="160" width="70" height="30" as="geometry" />
        </mxCell>
        <mxCell id="NBNxKnKTJVCiCuv_H7LS-46" style="rounded=0;orthogonalLoop=1;jettySize=auto;html=1;entryX=1;entryY=0.5;entryDx=0;entryDy=0;dashed=1;" parent="1" source="bJMHT8rVgH3jV2KobR5U-154" target="bJMHT8rVgH3jV2KobR5U-171" edge="1">
          <mxGeometry relative="1" as="geometry" />
        </mxCell>
        <mxCell id="bJMHT8rVgH3jV2KobR5U-154" value="UC21&lt;br&gt;Make payments" style="ellipse;whiteSpace=wrap;html=1;fillColor=none;" parent="1" vertex="1">
          <mxGeometry x="452.26" y="1100" width="120" height="50" as="geometry" />
        </mxCell>
        <mxCell id="bJMHT8rVgH3jV2KobR5U-155" value="&amp;lt;&amp;lt;include&amp;gt;&amp;gt;" style="text;html=1;strokeColor=none;fillColor=none;align=center;verticalAlign=middle;whiteSpace=wrap;rounded=0;fontSize=11;rotation=0;" parent="1" vertex="1">
          <mxGeometry x="440" y="120" width="60" height="30" as="geometry" />
        </mxCell>
        <mxCell id="bJMHT8rVgH3jV2KobR5U-166" value="UC06&lt;br&gt;View room occupancy report" style="ellipse;whiteSpace=wrap;html=1;fillColor=none;" parent="1" vertex="1">
          <mxGeometry x="312.16" y="373" width="150.84" height="62" as="geometry" />
        </mxCell>
        <mxCell id="bJMHT8rVgH3jV2KobR5U-169" value="UC13&lt;br&gt;Apply check in / out" style="ellipse;whiteSpace=wrap;html=1;" parent="1" vertex="1">
          <mxGeometry x="470.51" y="768" width="128.14" height="56" as="geometry" />
        </mxCell>
        <mxCell id="bJMHT8rVgH3jV2KobR5U-171" value="UC22&lt;br&gt;Download receipts" style="ellipse;whiteSpace=wrap;html=1;fillColor=none;" parent="1" vertex="1">
          <mxGeometry x="301.18" y="1094" width="118.14" height="56" as="geometry" />
        </mxCell>
        <mxCell id="NBNxKnKTJVCiCuv_H7LS-45" style="rounded=0;orthogonalLoop=1;jettySize=auto;html=1;entryX=1;entryY=0.5;entryDx=0;entryDy=0;dashed=1;" parent="1" source="bJMHT8rVgH3jV2KobR5U-173" target="D4oXfm0Zomq6TIa_e8fU-30" edge="1">
          <mxGeometry relative="1" as="geometry" />
        </mxCell>
        <mxCell id="bJMHT8rVgH3jV2KobR5U-173" value="UC19&lt;br&gt;Application approvement" style="ellipse;whiteSpace=wrap;html=1;fillColor=none;" parent="1" vertex="1">
          <mxGeometry x="364.94" y="918" width="120" height="52.5" as="geometry" />
        </mxCell>
        <mxCell id="bJMHT8rVgH3jV2KobR5U-174" value="UC14&lt;br&gt;Maintenance request / tracking" style="ellipse;whiteSpace=wrap;html=1;" parent="1" vertex="1">
          <mxGeometry x="342.91" y="832" width="147.91" height="60" as="geometry" />
        </mxCell>
        <mxCell id="bJMHT8rVgH3jV2KobR5U-175" value="UC08&lt;br&gt;View room maintenance record" style="ellipse;whiteSpace=wrap;html=1;fillColor=none;" parent="1" vertex="1">
          <mxGeometry x="282.5" y="492" width="160.13" height="60" as="geometry" />
        </mxCell>
        <mxCell id="bJMHT8rVgH3jV2KobR5U-178" value="UC23&lt;br&gt;View payment history" style="ellipse;whiteSpace=wrap;html=1;fillColor=none;" parent="1" vertex="1">
          <mxGeometry x="379.94" y="1165" width="105" height="50" as="geometry" />
        </mxCell>
        <mxCell id="bJMHT8rVgH3jV2KobR5U-182" value="UC07&lt;br&gt;View revenue report" style="ellipse;whiteSpace=wrap;html=1;fillColor=none;" parent="1" vertex="1">
          <mxGeometry x="417" y="428" width="118.13" height="70" as="geometry" />
        </mxCell>
        <mxCell id="NBNxKnKTJVCiCuv_H7LS-34" style="rounded=0;orthogonalLoop=1;jettySize=auto;html=1;entryX=0.299;entryY=0.926;entryDx=0;entryDy=0;entryPerimeter=0;dashed=1;" parent="1" source="17" target="18" edge="1">
          <mxGeometry relative="1" as="geometry" />
        </mxCell>
        <mxCell id="NBNxKnKTJVCiCuv_H7LS-35" style="rounded=0;orthogonalLoop=1;jettySize=auto;html=1;entryX=0;entryY=0.5;entryDx=0;entryDy=0;dashed=1;" parent="1" source="17" target="19" edge="1">
          <mxGeometry relative="1" as="geometry" />
        </mxCell>
        <mxCell id="NBNxKnKTJVCiCuv_H7LS-36" style="rounded=0;orthogonalLoop=1;jettySize=auto;html=1;entryX=0;entryY=0.5;entryDx=0;entryDy=0;dashed=1;" parent="1" source="17" target="bJMHT8rVgH3jV2KobR5U-169" edge="1">
          <mxGeometry relative="1" as="geometry" />
        </mxCell>
        <mxCell id="NBNxKnKTJVCiCuv_H7LS-37" style="rounded=0;orthogonalLoop=1;jettySize=auto;html=1;entryX=0;entryY=0;entryDx=0;entryDy=0;dashed=1;" parent="1" source="17" target="bJMHT8rVgH3jV2KobR5U-174" edge="1">
          <mxGeometry relative="1" as="geometry" />
        </mxCell>
        <mxCell id="17" value="UC15&lt;br&gt;Manage application" style="ellipse;whiteSpace=wrap;html=1;" parent="1" vertex="1">
          <mxGeometry x="253.89000000000001" y="743" width="124.87" height="62" as="geometry" />
        </mxCell>
        <mxCell id="18" value="UC11&lt;br&gt;Apply room changing / cancellation" style="ellipse;whiteSpace=wrap;html=1;" parent="1" vertex="1">
          <mxGeometry x="348.02" y="642" width="142.76" height="57" as="geometry" />
        </mxCell>
        <mxCell id="19" value="UC12&lt;br&gt;Register electrical appliances" style="ellipse;whiteSpace=wrap;html=1;" parent="1" vertex="1">
          <mxGeometry x="490.82" y="703" width="131.44" height="53" as="geometry" />
        </mxCell>
        <mxCell id="28" value="&amp;lt;&amp;lt;include&amp;gt;&amp;gt;" style="text;html=1;strokeColor=none;fillColor=none;align=center;verticalAlign=middle;whiteSpace=wrap;rounded=0;fontSize=11;rotation=0;" parent="1" vertex="1">
          <mxGeometry x="297.95" y="707" width="60" height="30" as="geometry" />
        </mxCell>
        <mxCell id="E0ZFKpVbwkk2b9CQsdlB-40" value="UC10&lt;br&gt;View quota active report" style="ellipse;whiteSpace=wrap;html=1;fillColor=none;" parent="1" vertex="1">
          <mxGeometry x="357.95" y="560" width="128.38" height="61" as="geometry" />
        </mxCell>
        <mxCell id="E0ZFKpVbwkk2b9CQsdlB-43" style="edgeStyle=none;html=1;entryX=1;entryY=0.5;entryDx=0;entryDy=0;dashed=1;exitX=0;exitY=1;exitDx=0;exitDy=0;" parent="1" source="E0ZFKpVbwkk2b9CQsdlB-42" target="E0ZFKpVbwkk2b9CQsdlB-40" edge="1">
          <mxGeometry relative="1" as="geometry">
            <mxPoint x="526" y="563" as="sourcePoint" />
          </mxGeometry>
        </mxCell>
        <mxCell id="E0ZFKpVbwkk2b9CQsdlB-42" value="UC09&lt;br&gt;Enter student college merits" style="ellipse;whiteSpace=wrap;html=1;fillColor=none;" parent="1" vertex="1">
          <mxGeometry x="509" y="492" width="126.75" height="68" as="geometry" />
        </mxCell>
        <mxCell id="NBNxKnKTJVCiCuv_H7LS-44" style="rounded=0;orthogonalLoop=1;jettySize=auto;html=1;entryX=0.5;entryY=1;entryDx=0;entryDy=0;dashed=1;" parent="1" source="D4oXfm0Zomq6TIa_e8fU-28" target="bJMHT8rVgH3jV2KobR5U-173" edge="1">
          <mxGeometry relative="1" as="geometry" />
        </mxCell>
        <mxCell id="D4oXfm0Zomq6TIa_e8fU-28" value="UC18&lt;br&gt;View real time room availability" style="ellipse;whiteSpace=wrap;html=1;" parent="1" vertex="1">
          <mxGeometry x="307.88" y="999" width="121.38" height="65" as="geometry" />
        </mxCell>
        <mxCell id="NBNxKnKTJVCiCuv_H7LS-43" style="rounded=0;orthogonalLoop=1;jettySize=auto;html=1;entryX=1;entryY=0.5;entryDx=0;entryDy=0;dashed=1;" parent="1" source="D4oXfm0Zomq6TIa_e8fU-29" target="D4oXfm0Zomq6TIa_e8fU-28" edge="1">
          <mxGeometry relative="1" as="geometry" />
        </mxCell>
        <mxCell id="D4oXfm0Zomq6TIa_e8fU-29" value="UC17&lt;br&gt;Select room preferences" style="ellipse;whiteSpace=wrap;html=1;" parent="1" vertex="1">
          <mxGeometry x="470.51" y="1009" width="115.01" height="55" as="geometry" />
        </mxCell>
        <mxCell id="D4oXfm0Zomq6TIa_e8fU-30" value="UC20&lt;br&gt;Room allocation" style="ellipse;whiteSpace=wrap;html=1;" parent="1" vertex="1">
          <mxGeometry x="217.99999999999997" y="934" width="121.26" height="50" as="geometry" />
        </mxCell>
        <mxCell id="NBNxKnKTJVCiCuv_H7LS-42" style="rounded=0;orthogonalLoop=1;jettySize=auto;html=1;dashed=1;" parent="1" source="1dNcHJPyDsSYfPNajFhj-28" target="D4oXfm0Zomq6TIa_e8fU-29" edge="1">
          <mxGeometry relative="1" as="geometry" />
        </mxCell>
        <mxCell id="1dNcHJPyDsSYfPNajFhj-28" value="UC16&lt;br&gt;Hostel room application" style="ellipse;whiteSpace=wrap;html=1;" parent="1" vertex="1">
          <mxGeometry x="519.88" y="929" width="116.24" height="55" as="geometry" />
        </mxCell>
        <mxCell id="AR3hY_t0IXQOkz2zPapQ-29" value="&lt;span style=&quot;font-size: 14px;&quot;&gt;&lt;b&gt;STUDENT ACCOMMODATION SYSTEM IN KTDI&lt;/b&gt;&lt;/span&gt;" style="text;html=1;strokeColor=none;fillColor=none;align=center;verticalAlign=middle;whiteSpace=wrap;rounded=0;fontColor=#FFFFFF;" parent="1" vertex="1">
          <mxGeometry x="253.89" y="30" width="400" height="30" as="geometry" />
        </mxCell>
        <mxCell id="NBNxKnKTJVCiCuv_H7LS-28" value="UC03&lt;br&gt;Update user profile" style="ellipse;whiteSpace=wrap;html=1;" parent="1" vertex="1">
          <mxGeometry x="290.43" y="219" width="128.89" height="54" as="geometry" />
        </mxCell>
        <mxCell id="NBNxKnKTJVCiCuv_H7LS-53" style="rounded=0;orthogonalLoop=1;jettySize=auto;html=1;entryX=0;entryY=1;entryDx=0;entryDy=0;dashed=1;" parent="1" source="NBNxKnKTJVCiCuv_H7LS-29" target="NBNxKnKTJVCiCuv_H7LS-30" edge="1">
          <mxGeometry relative="1" as="geometry" />
        </mxCell>
        <mxCell id="NBNxKnKTJVCiCuv_H7LS-29" value="UC04&lt;br&gt;Update hostel information" style="ellipse;whiteSpace=wrap;html=1;" parent="1" vertex="1">
          <mxGeometry x="300.44" y="296" width="129.96" height="60" as="geometry" />
        </mxCell>
        <mxCell id="NBNxKnKTJVCiCuv_H7LS-30" value="UC05&lt;br&gt;View hostel information" style="ellipse;whiteSpace=wrap;html=1;" parent="1" vertex="1">
          <mxGeometry x="500" y="213" width="119.13" height="60" as="geometry" />
        </mxCell>
        <mxCell id="NBNxKnKTJVCiCuv_H7LS-38" value="&amp;lt;&amp;lt;include&amp;gt;&amp;gt;" style="text;html=1;strokeColor=none;fillColor=none;align=center;verticalAlign=middle;whiteSpace=wrap;rounded=0;fontSize=11;rotation=0;" parent="1" vertex="1">
          <mxGeometry x="282.5" y="811" width="60" height="30" as="geometry" />
        </mxCell>
        <mxCell id="NBNxKnKTJVCiCuv_H7LS-39" value="&amp;lt;&amp;lt;include&amp;gt;&amp;gt;" style="text;html=1;strokeColor=none;fillColor=none;align=center;verticalAlign=middle;whiteSpace=wrap;rounded=0;fontSize=11;rotation=0;" parent="1" vertex="1">
          <mxGeometry x="362.44" y="787" width="60" height="30" as="geometry" />
        </mxCell>
        <mxCell id="NBNxKnKTJVCiCuv_H7LS-40" value="&amp;lt;&amp;lt;include&amp;gt;&amp;gt;" style="text;html=1;strokeColor=none;fillColor=none;align=center;verticalAlign=middle;whiteSpace=wrap;rounded=0;fontSize=11;rotation=0;" parent="1" vertex="1">
          <mxGeometry x="368" y="724" width="60" height="30" as="geometry" />
        </mxCell>
        <mxCell id="NBNxKnKTJVCiCuv_H7LS-47" value="&amp;lt;&amp;lt;extend&amp;gt;&amp;gt;" style="text;html=1;strokeColor=none;fillColor=none;align=center;verticalAlign=middle;whiteSpace=wrap;rounded=0;fontSize=11;rotation=0;" parent="1" vertex="1">
          <mxGeometry x="490.82" y="979" width="60" height="30" as="geometry" />
        </mxCell>
        <mxCell id="NBNxKnKTJVCiCuv_H7LS-48" value="&amp;lt;&amp;lt;extend&amp;gt;&amp;gt;" style="text;html=1;strokeColor=none;fillColor=none;align=center;verticalAlign=middle;whiteSpace=wrap;rounded=0;fontSize=11;rotation=0;" parent="1" vertex="1">
          <mxGeometry x="419.32" y="1040" width="60" height="30" as="geometry" />
        </mxCell>
        <mxCell id="NBNxKnKTJVCiCuv_H7LS-49" value="&amp;lt;&amp;lt;extend&amp;gt;&amp;gt;" style="text;html=1;strokeColor=none;fillColor=none;align=center;verticalAlign=middle;whiteSpace=wrap;rounded=0;fontSize=11;rotation=0;" parent="1" vertex="1">
          <mxGeometry x="348.02" y="970.5" width="60" height="30" as="geometry" />
        </mxCell>
        <mxCell id="NBNxKnKTJVCiCuv_H7LS-50" value="&amp;lt;&amp;lt;extend&amp;gt;&amp;gt;" style="text;html=1;strokeColor=none;fillColor=none;align=center;verticalAlign=middle;whiteSpace=wrap;rounded=0;fontSize=11;rotation=0;" parent="1" vertex="1">
          <mxGeometry x="310.13" y="915" width="60" height="30" as="geometry" />
        </mxCell>
        <mxCell id="NBNxKnKTJVCiCuv_H7LS-51" value="&amp;lt;&amp;lt;extend&amp;gt;&amp;gt;" style="text;html=1;strokeColor=none;fillColor=none;align=center;verticalAlign=middle;whiteSpace=wrap;rounded=0;fontSize=11;rotation=0;" parent="1" vertex="1">
          <mxGeometry x="413.25" y="1082" width="60" height="30" as="geometry" />
        </mxCell>
        <mxCell id="NBNxKnKTJVCiCuv_H7LS-52" value="&amp;lt;&amp;lt;extend&amp;gt;&amp;gt;" style="text;html=1;strokeColor=none;fillColor=none;align=center;verticalAlign=middle;whiteSpace=wrap;rounded=0;fontSize=11;rotation=0;" parent="1" vertex="1">
          <mxGeometry x="509" y="558" width="60" height="30" as="geometry" />
        </mxCell>
        <mxCell id="NBNxKnKTJVCiCuv_H7LS-54" value="&amp;lt;&amp;lt;extend&amp;gt;&amp;gt;" style="text;html=1;strokeColor=none;fillColor=none;align=center;verticalAlign=middle;whiteSpace=wrap;rounded=0;fontSize=11;rotation=0;" parent="1" vertex="1">
          <mxGeometry x="466" y="279" width="60" height="30" as="geometry" />
        </mxCell>
        <mxCell id="NBNxKnKTJVCiCuv_H7LS-55" value="&lt;b&gt;Student Accommodation System in KTDI&lt;/b&gt;" style="text;html=1;strokeColor=none;fillColor=none;align=center;verticalAlign=middle;whiteSpace=wrap;rounded=0;" parent="1" vertex="1">
          <mxGeometry x="300.44" y="32" width="249" height="30" as="geometry" />
        </mxCell>
        <mxCell id="NBNxKnKTJVCiCuv_H7LS-61" style="rounded=0;orthogonalLoop=1;jettySize=auto;html=1;entryX=0.012;entryY=0.32;entryDx=0;entryDy=0;entryPerimeter=0;" parent="1" source="NBNxKnKTJVCiCuv_H7LS-57" target="bJMHT8rVgH3jV2KobR5U-136" edge="1">
          <mxGeometry relative="1" as="geometry" />
        </mxCell>
        <mxCell id="NBNxKnKTJVCiCuv_H7LS-63" style="rounded=0;orthogonalLoop=1;jettySize=auto;html=1;entryX=0;entryY=0.5;entryDx=0;entryDy=0;" parent="1" source="NBNxKnKTJVCiCuv_H7LS-57" target="NBNxKnKTJVCiCuv_H7LS-28" edge="1">
          <mxGeometry relative="1" as="geometry" />
        </mxCell>
        <mxCell id="NBNxKnKTJVCiCuv_H7LS-64" style="rounded=0;orthogonalLoop=1;jettySize=auto;html=1;entryX=0;entryY=0.5;entryDx=0;entryDy=0;" parent="1" source="NBNxKnKTJVCiCuv_H7LS-57" target="NBNxKnKTJVCiCuv_H7LS-29" edge="1">
          <mxGeometry relative="1" as="geometry" />
        </mxCell>
        <mxCell id="NBNxKnKTJVCiCuv_H7LS-65" style="rounded=0;orthogonalLoop=1;jettySize=auto;html=1;entryX=0;entryY=0.5;entryDx=0;entryDy=0;" parent="1" source="NBNxKnKTJVCiCuv_H7LS-57" target="bJMHT8rVgH3jV2KobR5U-166" edge="1">
          <mxGeometry relative="1" as="geometry" />
        </mxCell>
        <mxCell id="NBNxKnKTJVCiCuv_H7LS-66" style="rounded=0;orthogonalLoop=1;jettySize=auto;html=1;entryX=0;entryY=0.5;entryDx=0;entryDy=0;" parent="1" source="NBNxKnKTJVCiCuv_H7LS-57" target="bJMHT8rVgH3jV2KobR5U-182" edge="1">
          <mxGeometry relative="1" as="geometry">
            <Array as="points">
              <mxPoint x="325" y="460" />
            </Array>
          </mxGeometry>
        </mxCell>
        <mxCell id="NBNxKnKTJVCiCuv_H7LS-67" style="rounded=0;orthogonalLoop=1;jettySize=auto;html=1;entryX=0;entryY=0.5;entryDx=0;entryDy=0;" parent="1" source="NBNxKnKTJVCiCuv_H7LS-57" target="bJMHT8rVgH3jV2KobR5U-175" edge="1">
          <mxGeometry relative="1" as="geometry" />
        </mxCell>
        <mxCell id="NBNxKnKTJVCiCuv_H7LS-68" style="rounded=0;orthogonalLoop=1;jettySize=auto;html=1;entryX=0;entryY=0.5;entryDx=0;entryDy=0;" parent="1" source="NBNxKnKTJVCiCuv_H7LS-57" target="E0ZFKpVbwkk2b9CQsdlB-40" edge="1">
          <mxGeometry relative="1" as="geometry">
            <Array as="points">
              <mxPoint x="290" y="591" />
            </Array>
          </mxGeometry>
        </mxCell>
        <mxCell id="NBNxKnKTJVCiCuv_H7LS-69" style="rounded=0;orthogonalLoop=1;jettySize=auto;html=1;entryX=0.5;entryY=0;entryDx=0;entryDy=0;" parent="1" source="NBNxKnKTJVCiCuv_H7LS-57" target="D4oXfm0Zomq6TIa_e8fU-30" edge="1">
          <mxGeometry relative="1" as="geometry" />
        </mxCell>
        <mxCell id="NBNxKnKTJVCiCuv_H7LS-57" value="Admin" style="shape=umlActor;verticalLabelPosition=bottom;verticalAlign=top;html=1;" parent="1" vertex="1">
          <mxGeometry x="48" y="301" width="30" height="60" as="geometry" />
        </mxCell>
        <mxCell id="NBNxKnKTJVCiCuv_H7LS-72" style="rounded=0;orthogonalLoop=1;jettySize=auto;html=1;entryX=0;entryY=0.5;entryDx=0;entryDy=0;" parent="1" source="NBNxKnKTJVCiCuv_H7LS-58" target="bJMHT8rVgH3jV2KobR5U-136" edge="1">
          <mxGeometry relative="1" as="geometry">
            <Array as="points">
              <mxPoint x="60" y="511" />
            </Array>
          </mxGeometry>
        </mxCell>
        <mxCell id="NBNxKnKTJVCiCuv_H7LS-73" style="rounded=0;orthogonalLoop=1;jettySize=auto;html=1;entryX=0;entryY=0.5;entryDx=0;entryDy=0;" parent="1" source="NBNxKnKTJVCiCuv_H7LS-58" target="17" edge="1">
          <mxGeometry relative="1" as="geometry" />
        </mxCell>
        <mxCell id="NBNxKnKTJVCiCuv_H7LS-74" style="rounded=0;orthogonalLoop=1;jettySize=auto;html=1;entryX=0.056;entryY=0.833;entryDx=0;entryDy=0;entryPerimeter=0;" parent="1" source="NBNxKnKTJVCiCuv_H7LS-58" target="NBNxKnKTJVCiCuv_H7LS-28" edge="1">
          <mxGeometry relative="1" as="geometry" />
        </mxCell>
        <mxCell id="NBNxKnKTJVCiCuv_H7LS-75" style="rounded=0;orthogonalLoop=1;jettySize=auto;html=1;entryX=0.015;entryY=0.733;entryDx=0;entryDy=0;entryPerimeter=0;" parent="1" source="NBNxKnKTJVCiCuv_H7LS-58" target="NBNxKnKTJVCiCuv_H7LS-29" edge="1">
          <mxGeometry relative="1" as="geometry" />
        </mxCell>
        <mxCell id="NBNxKnKTJVCiCuv_H7LS-76" style="rounded=0;orthogonalLoop=1;jettySize=auto;html=1;entryX=0;entryY=0.5;entryDx=0;entryDy=0;" parent="1" source="NBNxKnKTJVCiCuv_H7LS-58" target="bJMHT8rVgH3jV2KobR5U-178" edge="1">
          <mxGeometry relative="1" as="geometry">
            <Array as="points">
              <mxPoint x="274" y="1190" />
            </Array>
          </mxGeometry>
        </mxCell>
        <mxCell id="NBNxKnKTJVCiCuv_H7LS-58" value="Staff" style="shape=umlActor;verticalLabelPosition=bottom;verticalAlign=top;html=1;" parent="1" vertex="1">
          <mxGeometry x="48" y="754" width="30" height="60" as="geometry" />
        </mxCell>
        <mxCell id="NBNxKnKTJVCiCuv_H7LS-77" style="rounded=0;orthogonalLoop=1;jettySize=auto;html=1;entryX=1;entryY=0.5;entryDx=0;entryDy=0;" parent="1" source="NBNxKnKTJVCiCuv_H7LS-59" target="bJMHT8rVgH3jV2KobR5U-136" edge="1">
          <mxGeometry relative="1" as="geometry" />
        </mxCell>
        <mxCell id="NBNxKnKTJVCiCuv_H7LS-79" style="rounded=0;orthogonalLoop=1;jettySize=auto;html=1;entryX=1;entryY=0.5;entryDx=0;entryDy=0;" parent="1" source="NBNxKnKTJVCiCuv_H7LS-59" target="E0ZFKpVbwkk2b9CQsdlB-42" edge="1">
          <mxGeometry relative="1" as="geometry" />
        </mxCell>
        <mxCell id="NBNxKnKTJVCiCuv_H7LS-80" style="rounded=0;orthogonalLoop=1;jettySize=auto;html=1;" parent="1" source="NBNxKnKTJVCiCuv_H7LS-59" target="NBNxKnKTJVCiCuv_H7LS-29" edge="1">
          <mxGeometry relative="1" as="geometry" />
        </mxCell>
        <mxCell id="NBNxKnKTJVCiCuv_H7LS-81" style="rounded=0;orthogonalLoop=1;jettySize=auto;html=1;entryX=0.956;entryY=0.656;entryDx=0;entryDy=0;entryPerimeter=0;" parent="1" source="NBNxKnKTJVCiCuv_H7LS-59" target="NBNxKnKTJVCiCuv_H7LS-28" edge="1">
          <mxGeometry relative="1" as="geometry" />
        </mxCell>
        <mxCell id="NBNxKnKTJVCiCuv_H7LS-59" value="Fellow" style="shape=umlActor;verticalLabelPosition=bottom;verticalAlign=top;html=1;" parent="1" vertex="1">
          <mxGeometry x="763" y="301" width="30" height="60" as="geometry" />
        </mxCell>
        <mxCell id="NBNxKnKTJVCiCuv_H7LS-82" style="rounded=0;orthogonalLoop=1;jettySize=auto;html=1;entryX=0.912;entryY=0.833;entryDx=0;entryDy=0;entryPerimeter=0;" parent="1" source="NBNxKnKTJVCiCuv_H7LS-60" target="NBNxKnKTJVCiCuv_H7LS-28" edge="1">
          <mxGeometry relative="1" as="geometry">
            <Array as="points">
              <mxPoint x="639" y="446" />
            </Array>
          </mxGeometry>
        </mxCell>
        <mxCell id="NBNxKnKTJVCiCuv_H7LS-83" style="rounded=0;orthogonalLoop=1;jettySize=auto;html=1;entryX=1;entryY=0.5;entryDx=0;entryDy=0;" parent="1" source="NBNxKnKTJVCiCuv_H7LS-60" target="NBNxKnKTJVCiCuv_H7LS-30" edge="1">
          <mxGeometry relative="1" as="geometry" />
        </mxCell>
        <mxCell id="NBNxKnKTJVCiCuv_H7LS-84" style="rounded=0;orthogonalLoop=1;jettySize=auto;html=1;entryX=0.932;entryY=0.272;entryDx=0;entryDy=0;entryPerimeter=0;" parent="1" source="NBNxKnKTJVCiCuv_H7LS-60" target="bJMHT8rVgH3jV2KobR5U-136" edge="1">
          <mxGeometry relative="1" as="geometry">
            <Array as="points">
              <mxPoint x="600" y="82" />
            </Array>
          </mxGeometry>
        </mxCell>
        <mxCell id="NBNxKnKTJVCiCuv_H7LS-85" style="rounded=0;orthogonalLoop=1;jettySize=auto;html=1;entryX=1;entryY=0.5;entryDx=0;entryDy=0;" parent="1" source="NBNxKnKTJVCiCuv_H7LS-60" target="18" edge="1">
          <mxGeometry relative="1" as="geometry">
            <Array as="points">
              <mxPoint x="574" y="671" />
            </Array>
          </mxGeometry>
        </mxCell>
        <mxCell id="NBNxKnKTJVCiCuv_H7LS-86" style="rounded=0;orthogonalLoop=1;jettySize=auto;html=1;" parent="1" source="NBNxKnKTJVCiCuv_H7LS-60" target="19" edge="1">
          <mxGeometry relative="1" as="geometry" />
        </mxCell>
        <mxCell id="NBNxKnKTJVCiCuv_H7LS-87" style="rounded=0;orthogonalLoop=1;jettySize=auto;html=1;entryX=1;entryY=0.5;entryDx=0;entryDy=0;" parent="1" source="NBNxKnKTJVCiCuv_H7LS-60" target="bJMHT8rVgH3jV2KobR5U-169" edge="1">
          <mxGeometry relative="1" as="geometry" />
        </mxCell>
        <mxCell id="NBNxKnKTJVCiCuv_H7LS-88" style="rounded=0;orthogonalLoop=1;jettySize=auto;html=1;entryX=1;entryY=0.5;entryDx=0;entryDy=0;" parent="1" source="NBNxKnKTJVCiCuv_H7LS-60" target="bJMHT8rVgH3jV2KobR5U-174" edge="1">
          <mxGeometry relative="1" as="geometry" />
        </mxCell>
        <mxCell id="NBNxKnKTJVCiCuv_H7LS-89" style="rounded=0;orthogonalLoop=1;jettySize=auto;html=1;entryX=1;entryY=0.5;entryDx=0;entryDy=0;" parent="1" source="NBNxKnKTJVCiCuv_H7LS-60" target="1dNcHJPyDsSYfPNajFhj-28" edge="1">
          <mxGeometry relative="1" as="geometry" />
        </mxCell>
        <mxCell id="NBNxKnKTJVCiCuv_H7LS-90" style="rounded=0;orthogonalLoop=1;jettySize=auto;html=1;entryX=1;entryY=0.5;entryDx=0;entryDy=0;" parent="1" source="NBNxKnKTJVCiCuv_H7LS-60" target="bJMHT8rVgH3jV2KobR5U-154" edge="1">
          <mxGeometry relative="1" as="geometry" />
        </mxCell>
        <mxCell id="NBNxKnKTJVCiCuv_H7LS-91" style="rounded=0;orthogonalLoop=1;jettySize=auto;html=1;entryX=1;entryY=0.5;entryDx=0;entryDy=0;" parent="1" source="NBNxKnKTJVCiCuv_H7LS-60" target="bJMHT8rVgH3jV2KobR5U-178" edge="1">
          <mxGeometry relative="1" as="geometry">
            <Array as="points">
              <mxPoint x="578" y="1190" />
            </Array>
          </mxGeometry>
        </mxCell>
        <mxCell id="NBNxKnKTJVCiCuv_H7LS-60" value="Student" style="shape=umlActor;verticalLabelPosition=bottom;verticalAlign=top;html=1;" parent="1" vertex="1">
          <mxGeometry x="763" y="745" width="30" height="60" as="geometry" />
        </mxCell>
        <mxCell id="NBNxKnKTJVCiCuv_H7LS-93" value="UC Use Cases" style="shape=umlFrame;whiteSpace=wrap;html=1;pointerEvents=0;width=109;height=36;strokeColor=#666666;" parent="1" vertex="1">
          <mxGeometry x="24" y="16" width="797" height="1227" as="geometry" />
        </mxCell>
      </root>
    </mxGraphModel>
  </diagram>
  <diagram id="G5CXZCbLdVPkXU9HpsY9" name="domain_diagram">
    <mxGraphModel dx="1036" dy="614" grid="1" gridSize="10" guides="1" tooltips="1" connect="1" arrows="1" fold="1" page="1" pageScale="1" pageWidth="1700" pageHeight="1400" math="0" shadow="0">
      <root>
        <mxCell id="0" />
        <mxCell id="1" parent="0" />
        <mxCell id="oGCOc0EpOefG775HSaRW-1" value="User" style="swimlane;fontStyle=1;align=center;verticalAlign=top;childLayout=stackLayout;horizontal=1;startSize=26;horizontalStack=0;resizeParent=1;resizeParentMax=0;resizeLast=0;collapsible=1;marginBottom=0;whiteSpace=wrap;html=1;" parent="1" vertex="1">
          <mxGeometry x="805" y="595" width="190" height="110" as="geometry" />
        </mxCell>
        <mxCell id="oGCOc0EpOefG775HSaRW-2" value="- userID : string&lt;br&gt;- email : string&lt;br&gt;- password : string&lt;br&gt;- name : string&lt;br&gt;- photo : string" style="text;strokeColor=none;fillColor=none;align=left;verticalAlign=top;spacingLeft=4;spacingRight=4;overflow=hidden;rotatable=0;points=[[0,0.5],[1,0.5]];portConstraint=eastwest;whiteSpace=wrap;html=1;" parent="oGCOc0EpOefG775HSaRW-1" vertex="1">
          <mxGeometry y="26" width="190" height="84" as="geometry" />
        </mxCell>
        <mxCell id="WU3alLODs1Q_MU6B4o8h-23" style="rounded=0;orthogonalLoop=1;jettySize=auto;html=1;entryX=0.501;entryY=1.011;entryDx=0;entryDy=0;entryPerimeter=0;exitX=0.5;exitY=0;exitDx=0;exitDy=0;" parent="1" source="oGCOc0EpOefG775HSaRW-5" target="oGCOc0EpOefG775HSaRW-2" edge="1">
          <mxGeometry relative="1" as="geometry">
            <mxPoint x="880" y="710" as="targetPoint" />
          </mxGeometry>
        </mxCell>
        <mxCell id="WU3alLODs1Q_MU6B4o8h-35" style="edgeStyle=orthogonalEdgeStyle;rounded=0;orthogonalLoop=1;jettySize=auto;html=1;entryX=0.678;entryY=0;entryDx=0;entryDy=0;entryPerimeter=0;" parent="1" source="oGCOc0EpOefG775HSaRW-5" target="oGCOc0EpOefG775HSaRW-13" edge="1">
          <mxGeometry relative="1" as="geometry" />
        </mxCell>
        <mxCell id="WU3alLODs1Q_MU6B4o8h-39" style="rounded=0;orthogonalLoop=1;jettySize=auto;html=1;entryX=0.25;entryY=0;entryDx=0;entryDy=0;edgeStyle=orthogonalEdgeStyle;" parent="1" source="oGCOc0EpOefG775HSaRW-5" target="oGCOc0EpOefG775HSaRW-25" edge="1">
          <mxGeometry relative="1" as="geometry" />
        </mxCell>
        <mxCell id="oGCOc0EpOefG775HSaRW-5" value="Student" style="swimlane;fontStyle=1;align=center;verticalAlign=top;childLayout=stackLayout;horizontal=1;startSize=26;horizontalStack=0;resizeParent=1;resizeParentMax=0;resizeLast=0;collapsible=1;marginBottom=0;whiteSpace=wrap;html=1;" parent="1" vertex="1">
          <mxGeometry x="740" y="755" width="200" height="120" as="geometry" />
        </mxCell>
        <mxCell id="oGCOc0EpOefG775HSaRW-8" value="- matric : string&lt;br&gt;- dob : int&lt;br&gt;- age : int&lt;br&gt;- program : string&lt;br&gt;- phone_number : string" style="text;strokeColor=none;fillColor=none;align=left;verticalAlign=top;spacingLeft=4;spacingRight=4;overflow=hidden;rotatable=0;points=[[0,0.5],[1,0.5]];portConstraint=eastwest;whiteSpace=wrap;html=1;" parent="oGCOc0EpOefG775HSaRW-5" vertex="1">
          <mxGeometry y="26" width="200" height="94" as="geometry" />
        </mxCell>
        <mxCell id="WU3alLODs1Q_MU6B4o8h-33" style="edgeStyle=orthogonalEdgeStyle;rounded=0;orthogonalLoop=1;jettySize=auto;html=1;entryX=1;entryY=0.5;entryDx=0;entryDy=0;" parent="1" source="oGCOc0EpOefG775HSaRW-9" target="oGCOc0EpOefG775HSaRW-42" edge="1">
          <mxGeometry relative="1" as="geometry" />
        </mxCell>
        <mxCell id="oGCOc0EpOefG775HSaRW-9" value="Admin" style="swimlane;fontStyle=1;align=center;verticalAlign=top;childLayout=stackLayout;horizontal=1;startSize=26;horizontalStack=0;resizeParent=1;resizeParentMax=0;resizeLast=0;collapsible=1;marginBottom=0;whiteSpace=wrap;html=1;" parent="1" vertex="1">
          <mxGeometry x="550" y="610" width="190" height="70" as="geometry" />
        </mxCell>
        <mxCell id="oGCOc0EpOefG775HSaRW-12" value="- adminID : string&lt;br&gt;- office_number : string" style="text;strokeColor=none;fillColor=none;align=left;verticalAlign=top;spacingLeft=4;spacingRight=4;overflow=hidden;rotatable=0;points=[[0,0.5],[1,0.5]];portConstraint=eastwest;whiteSpace=wrap;html=1;" parent="oGCOc0EpOefG775HSaRW-9" vertex="1">
          <mxGeometry y="26" width="190" height="44" as="geometry" />
        </mxCell>
        <mxCell id="WU3alLODs1Q_MU6B4o8h-29" value="manage" style="endArrow=block;endFill=1;html=1;edgeStyle=orthogonalEdgeStyle;align=left;verticalAlign=top;rounded=0;entryX=1;entryY=0.5;entryDx=0;entryDy=0;" parent="oGCOc0EpOefG775HSaRW-9" target="oGCOc0EpOefG775HSaRW-18" edge="1">
          <mxGeometry x="-0.6335" y="10" relative="1" as="geometry">
            <mxPoint x="90" y="70" as="sourcePoint" />
            <mxPoint x="250" y="70" as="targetPoint" />
            <mxPoint as="offset" />
          </mxGeometry>
        </mxCell>
        <mxCell id="WU3alLODs1Q_MU6B4o8h-30" value="1" style="edgeLabel;resizable=0;html=1;align=left;verticalAlign=bottom;" parent="WU3alLODs1Q_MU6B4o8h-29" connectable="0" vertex="1">
          <mxGeometry x="-1" relative="1" as="geometry" />
        </mxCell>
        <mxCell id="oGCOc0EpOefG775HSaRW-13" value="Accommodation" style="swimlane;fontStyle=1;align=center;verticalAlign=top;childLayout=stackLayout;horizontal=1;startSize=26;horizontalStack=0;resizeParent=1;resizeParentMax=0;resizeLast=0;collapsible=1;marginBottom=0;whiteSpace=wrap;html=1;" parent="1" vertex="1">
          <mxGeometry x="510" y="920" width="180" height="110" as="geometry" />
        </mxCell>
        <mxCell id="oGCOc0EpOefG775HSaRW-14" value="- location : string&lt;br&gt;- type : string&lt;br&gt;- capacity : int&lt;br&gt;- availableRoom : int&lt;br&gt;- fee : float" style="text;strokeColor=none;fillColor=none;align=left;verticalAlign=top;spacingLeft=4;spacingRight=4;overflow=hidden;rotatable=0;points=[[0,0.5],[1,0.5]];portConstraint=eastwest;whiteSpace=wrap;html=1;" parent="oGCOc0EpOefG775HSaRW-13" vertex="1">
          <mxGeometry y="26" width="180" height="84" as="geometry" />
        </mxCell>
        <mxCell id="oGCOc0EpOefG775HSaRW-17" value="Reservation" style="swimlane;fontStyle=1;align=center;verticalAlign=top;childLayout=stackLayout;horizontal=1;startSize=26;horizontalStack=0;resizeParent=1;resizeParentMax=0;resizeLast=0;collapsible=1;marginBottom=0;whiteSpace=wrap;html=1;" parent="1" vertex="1">
          <mxGeometry x="340" y="715" width="180" height="100" as="geometry" />
        </mxCell>
        <mxCell id="oGCOc0EpOefG775HSaRW-18" value="- studentID : string&lt;br&gt;- roomID : string&lt;br&gt;- startDate : string&lt;br&gt;- endDate : string" style="text;strokeColor=none;fillColor=none;align=left;verticalAlign=top;spacingLeft=4;spacingRight=4;overflow=hidden;rotatable=0;points=[[0,0.5],[1,0.5]];portConstraint=eastwest;whiteSpace=wrap;html=1;" parent="oGCOc0EpOefG775HSaRW-17" vertex="1">
          <mxGeometry y="26" width="180" height="74" as="geometry" />
        </mxCell>
        <mxCell id="oGCOc0EpOefG775HSaRW-21" value="Payment" style="swimlane;fontStyle=1;align=center;verticalAlign=top;childLayout=stackLayout;horizontal=1;startSize=26;horizontalStack=0;resizeParent=1;resizeParentMax=0;resizeLast=0;collapsible=1;marginBottom=0;whiteSpace=wrap;html=1;" parent="1" vertex="1">
          <mxGeometry x="850" y="941" width="160" height="100" as="geometry" />
        </mxCell>
        <mxCell id="oGCOc0EpOefG775HSaRW-22" value="- reservationID : string&lt;br&gt;- amount : float&lt;br&gt;- invoice : string&lt;br&gt;- histroy : string" style="text;strokeColor=none;fillColor=none;align=left;verticalAlign=top;spacingLeft=4;spacingRight=4;overflow=hidden;rotatable=0;points=[[0,0.5],[1,0.5]];portConstraint=eastwest;whiteSpace=wrap;html=1;" parent="oGCOc0EpOefG775HSaRW-21" vertex="1">
          <mxGeometry y="26" width="160" height="74" as="geometry" />
        </mxCell>
        <mxCell id="oGCOc0EpOefG775HSaRW-25" value="MaintenanceLog" style="swimlane;fontStyle=1;align=center;verticalAlign=top;childLayout=stackLayout;horizontal=1;startSize=26;horizontalStack=0;resizeParent=1;resizeParentMax=0;resizeLast=0;collapsible=1;marginBottom=0;whiteSpace=wrap;html=1;" parent="1" vertex="1">
          <mxGeometry x="1070" y="965" width="160" height="110" as="geometry" />
        </mxCell>
        <mxCell id="oGCOc0EpOefG775HSaRW-26" value="- roomID : string&lt;br&gt;- maintenanceID : string&lt;br&gt;- desciption : string&lt;br&gt;- dateReported : string&lt;br&gt;- dateMaintenance : string" style="text;strokeColor=none;fillColor=none;align=left;verticalAlign=top;spacingLeft=4;spacingRight=4;overflow=hidden;rotatable=0;points=[[0,0.5],[1,0.5]];portConstraint=eastwest;whiteSpace=wrap;html=1;" parent="oGCOc0EpOefG775HSaRW-25" vertex="1">
          <mxGeometry y="26" width="160" height="84" as="geometry" />
        </mxCell>
        <mxCell id="WU3alLODs1Q_MU6B4o8h-24" style="edgeStyle=orthogonalEdgeStyle;rounded=0;orthogonalLoop=1;jettySize=auto;html=1;entryX=0.5;entryY=0;entryDx=0;entryDy=0;" parent="1" source="oGCOc0EpOefG775HSaRW-29" target="oGCOc0EpOefG775HSaRW-1" edge="1">
          <mxGeometry relative="1" as="geometry" />
        </mxCell>
        <mxCell id="WU3alLODs1Q_MU6B4o8h-37" style="rounded=0;orthogonalLoop=1;jettySize=auto;html=1;entryX=0.498;entryY=1.021;entryDx=0;entryDy=0;entryPerimeter=0;" parent="1" source="oGCOc0EpOefG775HSaRW-29" target="WU3alLODs1Q_MU6B4o8h-3" edge="1">
          <mxGeometry relative="1" as="geometry">
            <mxPoint x="900" y="410" as="targetPoint" />
          </mxGeometry>
        </mxCell>
        <mxCell id="oGCOc0EpOefG775HSaRW-29" value="Fellow" style="swimlane;fontStyle=1;align=center;verticalAlign=top;childLayout=stackLayout;horizontal=1;startSize=26;horizontalStack=0;resizeParent=1;resizeParentMax=0;resizeLast=0;collapsible=1;marginBottom=0;whiteSpace=wrap;html=1;" parent="1" vertex="1">
          <mxGeometry x="820" y="465" width="160" height="70" as="geometry" />
        </mxCell>
        <mxCell id="oGCOc0EpOefG775HSaRW-30" value="- fellowID : string&lt;br&gt;- personal_number : string" style="text;strokeColor=none;fillColor=none;align=left;verticalAlign=top;spacingLeft=4;spacingRight=4;overflow=hidden;rotatable=0;points=[[0,0.5],[1,0.5]];portConstraint=eastwest;whiteSpace=wrap;html=1;" parent="oGCOc0EpOefG775HSaRW-29" vertex="1">
          <mxGeometry y="26" width="160" height="44" as="geometry" />
        </mxCell>
        <mxCell id="WU3alLODs1Q_MU6B4o8h-25" style="rounded=0;orthogonalLoop=1;jettySize=auto;html=1;entryX=1;entryY=0.5;entryDx=0;entryDy=0;exitX=0;exitY=0.5;exitDx=0;exitDy=0;" parent="1" source="oGCOc0EpOefG775HSaRW-36" target="oGCOc0EpOefG775HSaRW-2" edge="1">
          <mxGeometry relative="1" as="geometry" />
        </mxCell>
        <mxCell id="WU3alLODs1Q_MU6B4o8h-45" style="edgeStyle=orthogonalEdgeStyle;rounded=0;orthogonalLoop=1;jettySize=auto;html=1;entryX=0.5;entryY=0;entryDx=0;entryDy=0;" parent="1" source="oGCOc0EpOefG775HSaRW-33" target="oGCOc0EpOefG775HSaRW-25" edge="1">
          <mxGeometry relative="1" as="geometry" />
        </mxCell>
        <mxCell id="WU3alLODs1Q_MU6B4o8h-48" style="edgeStyle=orthogonalEdgeStyle;rounded=0;orthogonalLoop=1;jettySize=auto;html=1;entryX=0.5;entryY=0;entryDx=0;entryDy=0;" parent="1" source="oGCOc0EpOefG775HSaRW-33" target="WU3alLODs1Q_MU6B4o8h-11" edge="1">
          <mxGeometry relative="1" as="geometry" />
        </mxCell>
        <mxCell id="oGCOc0EpOefG775HSaRW-33" value="Staff" style="swimlane;fontStyle=1;align=center;verticalAlign=top;childLayout=stackLayout;horizontal=1;startSize=26;horizontalStack=0;resizeParent=1;resizeParentMax=0;resizeLast=0;collapsible=1;marginBottom=0;whiteSpace=wrap;html=1;" parent="1" vertex="1">
          <mxGeometry x="1050" y="551" width="200" height="70" as="geometry" />
        </mxCell>
        <mxCell id="oGCOc0EpOefG775HSaRW-36" value="- staffID : string&lt;br&gt;- office_number : string" style="text;strokeColor=none;fillColor=none;align=left;verticalAlign=top;spacingLeft=4;spacingRight=4;overflow=hidden;rotatable=0;points=[[0,0.5],[1,0.5]];portConstraint=eastwest;whiteSpace=wrap;html=1;" parent="oGCOc0EpOefG775HSaRW-33" vertex="1">
          <mxGeometry y="26" width="200" height="44" as="geometry" />
        </mxCell>
        <mxCell id="oGCOc0EpOefG775HSaRW-41" value="Report" style="swimlane;fontStyle=1;align=center;verticalAlign=top;childLayout=stackLayout;horizontal=1;startSize=26;horizontalStack=0;resizeParent=1;resizeParentMax=0;resizeLast=0;collapsible=1;marginBottom=0;whiteSpace=wrap;html=1;" parent="1" vertex="1">
          <mxGeometry x="360" y="485" width="160" height="100" as="geometry" />
        </mxCell>
        <mxCell id="oGCOc0EpOefG775HSaRW-42" value="- financial : float&lt;br&gt;- occupancy : int&lt;br&gt;- maintenance : string&lt;br&gt;- quota_active : string" style="text;strokeColor=none;fillColor=none;align=left;verticalAlign=top;spacingLeft=4;spacingRight=4;overflow=hidden;rotatable=0;points=[[0,0.5],[1,0.5]];portConstraint=eastwest;whiteSpace=wrap;html=1;" parent="oGCOc0EpOefG775HSaRW-41" vertex="1">
          <mxGeometry y="26" width="160" height="74" as="geometry" />
        </mxCell>
        <mxCell id="WU3alLODs1Q_MU6B4o8h-1" value="&lt;b&gt;Merit&lt;/b&gt;" style="swimlane;fontStyle=0;childLayout=stackLayout;horizontal=1;startSize=26;fillColor=none;horizontalStack=0;resizeParent=1;resizeParentMax=0;resizeLast=0;collapsible=1;marginBottom=0;whiteSpace=wrap;html=1;" parent="1" vertex="1">
          <mxGeometry x="830" y="325" width="140" height="78" as="geometry" />
        </mxCell>
        <mxCell id="WU3alLODs1Q_MU6B4o8h-2" value="- student_merit : float" style="text;strokeColor=none;fillColor=none;align=left;verticalAlign=top;spacingLeft=4;spacingRight=4;overflow=hidden;rotatable=0;points=[[0,0.5],[1,0.5]];portConstraint=eastwest;whiteSpace=wrap;html=1;" parent="WU3alLODs1Q_MU6B4o8h-1" vertex="1">
          <mxGeometry y="26" width="140" height="26" as="geometry" />
        </mxCell>
        <mxCell id="WU3alLODs1Q_MU6B4o8h-3" value="- studentID : string" style="text;strokeColor=none;fillColor=none;align=left;verticalAlign=top;spacingLeft=4;spacingRight=4;overflow=hidden;rotatable=0;points=[[0,0.5],[1,0.5]];portConstraint=eastwest;whiteSpace=wrap;html=1;" parent="WU3alLODs1Q_MU6B4o8h-1" vertex="1">
          <mxGeometry y="52" width="140" height="26" as="geometry" />
        </mxCell>
        <mxCell id="WU3alLODs1Q_MU6B4o8h-6" value="&lt;b&gt;Register&lt;/b&gt;" style="swimlane;fontStyle=0;childLayout=stackLayout;horizontal=1;startSize=26;fillColor=none;horizontalStack=0;resizeParent=1;resizeParentMax=0;resizeLast=0;collapsible=1;marginBottom=0;whiteSpace=wrap;html=1;" parent="1" vertex="1">
          <mxGeometry x="1250" y="845" width="180" height="96" as="geometry" />
        </mxCell>
        <mxCell id="WU3alLODs1Q_MU6B4o8h-7" value="- electrical_appliance_num : int" style="text;strokeColor=none;fillColor=none;align=left;verticalAlign=top;spacingLeft=4;spacingRight=4;overflow=hidden;rotatable=0;points=[[0,0.5],[1,0.5]];portConstraint=eastwest;whiteSpace=wrap;html=1;" parent="WU3alLODs1Q_MU6B4o8h-6" vertex="1">
          <mxGeometry y="26" width="180" height="24" as="geometry" />
        </mxCell>
        <mxCell id="WU3alLODs1Q_MU6B4o8h-8" value="- cost : float" style="text;strokeColor=none;fillColor=none;align=left;verticalAlign=top;spacingLeft=4;spacingRight=4;overflow=hidden;rotatable=0;points=[[0,0.5],[1,0.5]];portConstraint=eastwest;whiteSpace=wrap;html=1;" parent="WU3alLODs1Q_MU6B4o8h-6" vertex="1">
          <mxGeometry y="50" width="180" height="20" as="geometry" />
        </mxCell>
        <mxCell id="WU3alLODs1Q_MU6B4o8h-9" value="- totalCost : float" style="text;strokeColor=none;fillColor=none;align=left;verticalAlign=top;spacingLeft=4;spacingRight=4;overflow=hidden;rotatable=0;points=[[0,0.5],[1,0.5]];portConstraint=eastwest;whiteSpace=wrap;html=1;" parent="WU3alLODs1Q_MU6B4o8h-6" vertex="1">
          <mxGeometry y="70" width="180" height="26" as="geometry" />
        </mxCell>
        <mxCell id="WU3alLODs1Q_MU6B4o8h-11" value="&lt;b&gt;CheckInOut&lt;/b&gt;" style="swimlane;fontStyle=0;childLayout=stackLayout;horizontal=1;startSize=26;fillColor=none;horizontalStack=0;resizeParent=1;resizeParentMax=0;resizeLast=0;collapsible=1;marginBottom=0;whiteSpace=wrap;html=1;" parent="1" vertex="1">
          <mxGeometry x="1220" y="710" width="140" height="110" as="geometry" />
        </mxCell>
        <mxCell id="WU3alLODs1Q_MU6B4o8h-12" value="- enterDate : string" style="text;strokeColor=none;fillColor=none;align=left;verticalAlign=top;spacingLeft=4;spacingRight=4;overflow=hidden;rotatable=0;points=[[0,0.5],[1,0.5]];portConstraint=eastwest;whiteSpace=wrap;html=1;" parent="WU3alLODs1Q_MU6B4o8h-11" vertex="1">
          <mxGeometry y="26" width="140" height="24" as="geometry" />
        </mxCell>
        <mxCell id="WU3alLODs1Q_MU6B4o8h-13" value="- exitDate : string" style="text;strokeColor=none;fillColor=none;align=left;verticalAlign=top;spacingLeft=4;spacingRight=4;overflow=hidden;rotatable=0;points=[[0,0.5],[1,0.5]];portConstraint=eastwest;whiteSpace=wrap;html=1;" parent="WU3alLODs1Q_MU6B4o8h-11" vertex="1">
          <mxGeometry y="50" width="140" height="18" as="geometry" />
        </mxCell>
        <mxCell id="WU3alLODs1Q_MU6B4o8h-14" value="- roomID : string&lt;br&gt;- studentID : string" style="text;strokeColor=none;fillColor=none;align=left;verticalAlign=top;spacingLeft=4;spacingRight=4;overflow=hidden;rotatable=0;points=[[0,0.5],[1,0.5]];portConstraint=eastwest;whiteSpace=wrap;html=1;" parent="WU3alLODs1Q_MU6B4o8h-11" vertex="1">
          <mxGeometry y="68" width="140" height="42" as="geometry" />
        </mxCell>
        <mxCell id="WU3alLODs1Q_MU6B4o8h-15" value="class domain objects" style="shape=umlFrame;whiteSpace=wrap;html=1;pointerEvents=0;width=140;height=30;" parent="1" vertex="1">
          <mxGeometry x="320" y="290" width="1140" height="830" as="geometry" />
        </mxCell>
        <mxCell id="WU3alLODs1Q_MU6B4o8h-16" value="1" style="endArrow=open;html=1;endSize=12;startArrow=diamondThin;startSize=14;startFill=1;edgeStyle=orthogonalEdgeStyle;align=left;verticalAlign=bottom;rounded=0;exitX=0.503;exitY=1.004;exitDx=0;exitDy=0;exitPerimeter=0;entryX=0.5;entryY=0;entryDx=0;entryDy=0;" parent="1" source="oGCOc0EpOefG775HSaRW-18" target="oGCOc0EpOefG775HSaRW-13" edge="1">
          <mxGeometry x="-1" y="3" relative="1" as="geometry">
            <mxPoint x="860" y="640" as="sourcePoint" />
            <mxPoint x="1020" y="640" as="targetPoint" />
          </mxGeometry>
        </mxCell>
        <mxCell id="WU3alLODs1Q_MU6B4o8h-22" style="rounded=0;orthogonalLoop=1;jettySize=auto;html=1;" parent="1" source="oGCOc0EpOefG775HSaRW-12" target="oGCOc0EpOefG775HSaRW-2" edge="1">
          <mxGeometry relative="1" as="geometry" />
        </mxCell>
        <mxCell id="WU3alLODs1Q_MU6B4o8h-26" value="1" style="endArrow=open;html=1;endSize=12;startArrow=diamondThin;startSize=14;startFill=0;edgeStyle=orthogonalEdgeStyle;align=left;verticalAlign=bottom;rounded=0;" parent="1" edge="1">
          <mxGeometry x="-1" y="3" relative="1" as="geometry">
            <mxPoint x="690" y="990" as="sourcePoint" />
            <mxPoint x="850" y="990" as="targetPoint" />
          </mxGeometry>
        </mxCell>
        <mxCell id="WU3alLODs1Q_MU6B4o8h-34" value="&lt;span style=&quot;color: rgb(0, 0, 0); font-family: Helvetica; font-size: 11px; font-style: normal; font-variant-ligatures: normal; font-variant-caps: normal; font-weight: 400; letter-spacing: normal; orphans: 2; text-align: left; text-indent: 0px; text-transform: none; widows: 2; word-spacing: 0px; -webkit-text-stroke-width: 0px; background-color: rgb(255, 255, 255); text-decoration-thickness: initial; text-decoration-style: initial; text-decoration-color: initial; float: none; display: inline !important;&quot;&gt;view&lt;/span&gt;" style="text;whiteSpace=wrap;html=1;" parent="1" vertex="1">
          <mxGeometry x="650" y="560" width="70" height="40" as="geometry" />
        </mxCell>
        <mxCell id="WU3alLODs1Q_MU6B4o8h-36" value="&lt;span style=&quot;color: rgb(0, 0, 0); font-family: Helvetica; font-size: 11px; font-style: normal; font-variant-ligatures: normal; font-variant-caps: normal; font-weight: 400; letter-spacing: normal; orphans: 2; text-align: left; text-indent: 0px; text-transform: none; widows: 2; word-spacing: 0px; -webkit-text-stroke-width: 0px; background-color: rgb(255, 255, 255); text-decoration-thickness: initial; text-decoration-style: initial; text-decoration-color: initial; float: none; display: inline !important;&quot;&gt;apply&lt;/span&gt;" style="text;whiteSpace=wrap;html=1;" parent="1" vertex="1">
          <mxGeometry x="660" y="815" width="70" height="50" as="geometry" />
        </mxCell>
        <mxCell id="WU3alLODs1Q_MU6B4o8h-38" value="manage" style="text;whiteSpace=wrap;html=1;" parent="1" vertex="1">
          <mxGeometry x="908" y="420" width="80" height="30" as="geometry" />
        </mxCell>
        <mxCell id="WU3alLODs1Q_MU6B4o8h-42" value="&lt;span style=&quot;color: rgb(0, 0, 0); font-family: Helvetica; font-size: 11px; font-style: normal; font-variant-ligatures: normal; font-variant-caps: normal; font-weight: 400; letter-spacing: normal; orphans: 2; text-align: left; text-indent: 0px; text-transform: none; widows: 2; word-spacing: 0px; -webkit-text-stroke-width: 0px; background-color: rgb(255, 255, 255); text-decoration-thickness: initial; text-decoration-style: initial; text-decoration-color: initial; float: none; display: inline !important;&quot;&gt;apply&lt;/span&gt;" style="text;whiteSpace=wrap;html=1;" parent="1" vertex="1">
          <mxGeometry x="970" y="785" width="70" height="40" as="geometry" />
        </mxCell>
        <mxCell id="WU3alLODs1Q_MU6B4o8h-46" value="manage" style="text;whiteSpace=wrap;html=1;" parent="1" vertex="1">
          <mxGeometry x="1090" y="630" width="80" height="40" as="geometry" />
        </mxCell>
        <mxCell id="WU3alLODs1Q_MU6B4o8h-52" style="edgeStyle=orthogonalEdgeStyle;rounded=0;orthogonalLoop=1;jettySize=auto;html=1;entryX=0.814;entryY=0.013;entryDx=0;entryDy=0;entryPerimeter=0;" parent="1" source="oGCOc0EpOefG775HSaRW-36" target="WU3alLODs1Q_MU6B4o8h-6" edge="1">
          <mxGeometry relative="1" as="geometry" />
        </mxCell>
        <mxCell id="WU3alLODs1Q_MU6B4o8h-53" value="manage" style="text;whiteSpace=wrap;html=1;" parent="1" vertex="1">
          <mxGeometry x="1260" y="570" width="80" height="40" as="geometry" />
        </mxCell>
        <mxCell id="WU3alLODs1Q_MU6B4o8h-54" style="edgeStyle=orthogonalEdgeStyle;rounded=0;orthogonalLoop=1;jettySize=auto;html=1;entryX=0;entryY=0.5;entryDx=0;entryDy=0;" parent="1" edge="1">
          <mxGeometry relative="1" as="geometry">
            <mxPoint x="940" y="815" as="sourcePoint" />
            <mxPoint x="1250" y="878" as="targetPoint" />
            <Array as="points">
              <mxPoint x="1110" y="815" />
              <mxPoint x="1110" y="878" />
            </Array>
          </mxGeometry>
        </mxCell>
        <mxCell id="WU3alLODs1Q_MU6B4o8h-55" style="edgeStyle=orthogonalEdgeStyle;rounded=0;orthogonalLoop=1;jettySize=auto;html=1;entryX=0;entryY=0.5;entryDx=0;entryDy=0;" parent="1" edge="1">
          <mxGeometry relative="1" as="geometry">
            <mxPoint x="940" y="815" as="sourcePoint" />
            <mxPoint x="1220" y="763.9999999999998" as="targetPoint" />
            <Array as="points">
              <mxPoint x="1110" y="815" />
              <mxPoint x="1110" y="764" />
            </Array>
          </mxGeometry>
        </mxCell>
      </root>
    </mxGraphModel>
  </diagram>
  <diagram id="rMF2I0FMHV4U05aj5x2J" name="sequence_diagram">
    <mxGraphModel dx="1219" dy="722" grid="1" gridSize="10" guides="1" tooltips="1" connect="1" arrows="1" fold="1" page="1" pageScale="1" pageWidth="850" pageHeight="1100" math="0" shadow="0">
      <root>
        <mxCell id="0" />
        <mxCell id="1" parent="0" />
        <mxCell id="S5-y5zS6l2NAs_fPD0nN-1" value="Student" style="shape=umlActor;verticalLabelPosition=bottom;verticalAlign=top;html=1;" parent="1" vertex="1">
          <mxGeometry x="40" y="40" width="30" height="60" as="geometry" />
        </mxCell>
        <mxCell id="S5-y5zS6l2NAs_fPD0nN-2" value="Admin&lt;span style=&quot;color: rgba(0, 0, 0, 0); font-family: monospace; font-size: 0px; text-align: start;&quot;&gt;%3CmxGraphModel%3E%3Croot%3E%3CmxCell%20id%3D%220%22%2F%3E%3CmxCell%20id%3D%221%22%20parent%3D%220%22%2F%3E%3CmxCell%20id%3D%222%22%20value%3D%22Student%22%20style%3D%22shape%3DumlActor%3BverticalLabelPosition%3Dbottom%3BverticalAlign%3Dtop%3Bhtml%3D1%3B%22%20vertex%3D%221%22%20parent%3D%221%22%3E%3CmxGeometry%20x%3D%2230%22%20y%3D%2230%22%20width%3D%2230%22%20height%3D%2260%22%20as%3D%22geometry%22%2F%3E%3C%2FmxCell%3E%3C%2Froot%3E%3C%2FmxGraphModel%3E&lt;/span&gt;" style="shape=umlActor;verticalLabelPosition=bottom;verticalAlign=top;html=1;" parent="1" vertex="1">
          <mxGeometry x="160" y="40" width="30" height="60" as="geometry" />
        </mxCell>
        <mxCell id="S5-y5zS6l2NAs_fPD0nN-3" value="Staff" style="shape=umlActor;verticalLabelPosition=bottom;verticalAlign=top;html=1;" parent="1" vertex="1">
          <mxGeometry x="210" y="40" width="30" height="60" as="geometry" />
        </mxCell>
        <mxCell id="S5-y5zS6l2NAs_fPD0nN-4" value="Felow" style="shape=umlActor;verticalLabelPosition=bottom;verticalAlign=top;html=1;" parent="1" vertex="1">
          <mxGeometry x="100" y="40" width="30" height="60" as="geometry" />
        </mxCell>
        <mxCell id="S5-y5zS6l2NAs_fPD0nN-5" value="Student" style="shape=umlActor;verticalLabelPosition=bottom;verticalAlign=top;html=1;" parent="1" vertex="1">
          <mxGeometry x="40" y="990" width="30" height="60" as="geometry" />
        </mxCell>
        <mxCell id="S5-y5zS6l2NAs_fPD0nN-6" value="Admin&lt;span style=&quot;color: rgba(0, 0, 0, 0); font-family: monospace; font-size: 0px; text-align: start;&quot;&gt;%3CmxGraphModel%3E%3Croot%3E%3CmxCell%20id%3D%220%22%2F%3E%3CmxCell%20id%3D%221%22%20parent%3D%220%22%2F%3E%3CmxCell%20id%3D%222%22%20value%3D%22Student%22%20style%3D%22shape%3DumlActor%3BverticalLabelPosition%3Dbottom%3BverticalAlign%3Dtop%3Bhtml%3D1%3B%22%20vertex%3D%221%22%20parent%3D%221%22%3E%3CmxGeometry%20x%3D%2230%22%20y%3D%2230%22%20width%3D%2230%22%20height%3D%2260%22%20as%3D%22geometry%22%2F%3E%3C%2FmxCell%3E%3C%2Froot%3E%3C%2FmxGraphModel%3E&lt;/span&gt;" style="shape=umlActor;verticalLabelPosition=bottom;verticalAlign=top;html=1;" parent="1" vertex="1">
          <mxGeometry x="159" y="990" width="30" height="60" as="geometry" />
        </mxCell>
        <mxCell id="S5-y5zS6l2NAs_fPD0nN-7" value="Staff" style="shape=umlActor;verticalLabelPosition=bottom;verticalAlign=top;html=1;" parent="1" vertex="1">
          <mxGeometry x="209" y="990" width="30" height="60" as="geometry" />
        </mxCell>
        <mxCell id="S5-y5zS6l2NAs_fPD0nN-8" value="Felow" style="shape=umlActor;verticalLabelPosition=bottom;verticalAlign=top;html=1;" parent="1" vertex="1">
          <mxGeometry x="100" y="990" width="30" height="60" as="geometry" />
        </mxCell>
        <mxCell id="S5-y5zS6l2NAs_fPD0nN-9" value="" style="rounded=0;whiteSpace=wrap;html=1;" parent="1" vertex="1">
          <mxGeometry x="52.5" y="160" width="5" height="120" as="geometry" />
        </mxCell>
        <mxCell id="S5-y5zS6l2NAs_fPD0nN-10" value="Authentication Subsystem" style="rounded=0;whiteSpace=wrap;html=1;shadow=0;fillColor=#f5f5f5;strokeColor=#666666;fontColor=#333333;" parent="1" vertex="1">
          <mxGeometry x="290" y="70" width="160" height="30" as="geometry" />
        </mxCell>
        <mxCell id="S5-y5zS6l2NAs_fPD0nN-11" value="Report &amp;amp; Analytic Subsystem" style="rounded=0;whiteSpace=wrap;html=1;shadow=0;fillColor=#f5f5f5;strokeColor=#666666;fontColor=#333333;" parent="1" vertex="1">
          <mxGeometry x="900" y="70" width="160" height="30" as="geometry" />
        </mxCell>
        <mxCell id="S5-y5zS6l2NAs_fPD0nN-12" value="Payment Management Subsystem" style="rounded=0;whiteSpace=wrap;html=1;shadow=0;fillColor=#f5f5f5;strokeColor=#666666;fontColor=#333333;" parent="1" vertex="1">
          <mxGeometry x="690" y="70" width="190" height="30" as="geometry" />
        </mxCell>
        <mxCell id="S5-y5zS6l2NAs_fPD0nN-13" value="Room Management Subsystem" style="rounded=0;whiteSpace=wrap;html=1;shadow=0;fillColor=#f5f5f5;strokeColor=#666666;fontColor=#333333;" parent="1" vertex="1">
          <mxGeometry x="480" y="70" width="190" height="30" as="geometry" />
        </mxCell>
        <mxCell id="S5-y5zS6l2NAs_fPD0nN-14" value="" style="endArrow=classic;html=1;endSize=4;startSize=4;" parent="1" edge="1">
          <mxGeometry width="50" height="50" relative="1" as="geometry">
            <mxPoint x="57.5" y="165" as="sourcePoint" />
            <mxPoint x="370" y="165" as="targetPoint" />
          </mxGeometry>
        </mxCell>
        <mxCell id="S5-y5zS6l2NAs_fPD0nN-15" value="Login as student" style="text;html=1;align=center;verticalAlign=middle;resizable=0;points=[];autosize=1;strokeColor=none;fillColor=none;" parent="1" vertex="1">
          <mxGeometry x="259.5" y="140" width="110" height="30" as="geometry" />
        </mxCell>
        <mxCell id="S5-y5zS6l2NAs_fPD0nN-16" value="" style="edgeStyle=none;html=1;entryX=0.5;entryY=0;entryDx=0;entryDy=0;dashed=1;dashPattern=8 8;endArrow=none;endFill=0;startArrow=none;" parent="1" source="S5-y5zS6l2NAs_fPD0nN-19" edge="1">
          <mxGeometry relative="1" as="geometry">
            <mxPoint x="369.40999999999997" y="100" as="sourcePoint" />
            <mxPoint x="369.4099999999996" y="180" as="targetPoint" />
          </mxGeometry>
        </mxCell>
        <mxCell id="S5-y5zS6l2NAs_fPD0nN-17" value="" style="edgeStyle=none;html=1;dashed=1;dashPattern=8 8;endArrow=none;endFill=0;" parent="1" source="S5-y5zS6l2NAs_fPD0nN-1" edge="1">
          <mxGeometry relative="1" as="geometry">
            <mxPoint x="54.40999999999997" y="110" as="sourcePoint" />
            <mxPoint x="55" y="160" as="targetPoint" />
          </mxGeometry>
        </mxCell>
        <mxCell id="S5-y5zS6l2NAs_fPD0nN-18" value="" style="edgeStyle=none;html=1;entryX=0.5;entryY=0;entryDx=0;entryDy=0;dashed=1;dashPattern=8 8;endArrow=none;endFill=0;" parent="1" edge="1">
          <mxGeometry relative="1" as="geometry">
            <mxPoint x="371.40999999999985" y="100" as="sourcePoint" />
            <mxPoint x="371.9999999999998" y="163.9999999999999" as="targetPoint" />
          </mxGeometry>
        </mxCell>
        <mxCell id="S5-y5zS6l2NAs_fPD0nN-19" value="" style="rounded=0;whiteSpace=wrap;html=1;" parent="1" vertex="1">
          <mxGeometry x="369.5" y="163" width="5" height="40" as="geometry" />
        </mxCell>
        <mxCell id="S5-y5zS6l2NAs_fPD0nN-20" value="" style="edgeStyle=none;html=1;entryX=0.5;entryY=0;entryDx=0;entryDy=0;dashed=1;dashPattern=8 8;endArrow=none;endFill=0;" parent="1" target="S5-y5zS6l2NAs_fPD0nN-21" edge="1">
          <mxGeometry relative="1" as="geometry">
            <mxPoint x="571.0000000000002" y="103" as="sourcePoint" />
            <mxPoint x="572.59" y="166.9999999999999" as="targetPoint" />
          </mxGeometry>
        </mxCell>
        <mxCell id="S5-y5zS6l2NAs_fPD0nN-21" value="" style="rounded=0;whiteSpace=wrap;html=1;" parent="1" vertex="1">
          <mxGeometry x="568" y="203" width="5" height="40" as="geometry" />
        </mxCell>
        <mxCell id="S5-y5zS6l2NAs_fPD0nN-22" value="" style="endArrow=classic;html=1;endSize=4;startSize=4;entryX=0;entryY=0;entryDx=0;entryDy=0;" parent="1" target="S5-y5zS6l2NAs_fPD0nN-21" edge="1">
          <mxGeometry width="50" height="50" relative="1" as="geometry">
            <mxPoint x="374.4999999999998" y="203" as="sourcePoint" />
            <mxPoint x="687" y="203" as="targetPoint" />
          </mxGeometry>
        </mxCell>
        <mxCell id="S5-y5zS6l2NAs_fPD0nN-23" value="" style="edgeStyle=none;html=1;dashed=1;dashPattern=8 8;endArrow=none;endFill=0;exitX=0.419;exitY=1.082;exitDx=0;exitDy=0;exitPerimeter=0;entryX=0.5;entryY=0;entryDx=0;entryDy=0;" parent="1" source="S5-y5zS6l2NAs_fPD0nN-12" target="S5-y5zS6l2NAs_fPD0nN-26" edge="1">
          <mxGeometry relative="1" as="geometry">
            <mxPoint x="769.5" y="140" as="sourcePoint" />
            <mxPoint x="800" y="210" as="targetPoint" />
          </mxGeometry>
        </mxCell>
        <mxCell id="S5-y5zS6l2NAs_fPD0nN-24" value="" style="rounded=0;whiteSpace=wrap;html=1;" parent="1" vertex="1">
          <mxGeometry x="766.5" y="240" width="3.5" height="40" as="geometry" />
        </mxCell>
        <mxCell id="S5-y5zS6l2NAs_fPD0nN-25" value="" style="endArrow=classic;html=1;endSize=4;startSize=4;entryX=0;entryY=0;entryDx=0;entryDy=0;" parent="1" target="S5-y5zS6l2NAs_fPD0nN-24" edge="1">
          <mxGeometry width="50" height="50" relative="1" as="geometry">
            <mxPoint x="573" y="240" as="sourcePoint" />
            <mxPoint x="885.5" y="240" as="targetPoint" />
          </mxGeometry>
        </mxCell>
        <mxCell id="S5-y5zS6l2NAs_fPD0nN-26" value="" style="rounded=0;whiteSpace=wrap;html=1;" parent="1" vertex="1">
          <mxGeometry x="766.5" y="240" width="5" height="40" as="geometry" />
        </mxCell>
        <mxCell id="S5-y5zS6l2NAs_fPD0nN-27" value="" style="edgeStyle=none;html=1;dashed=1;dashPattern=8 8;endArrow=none;endFill=0;exitX=0.419;exitY=1.082;exitDx=0;exitDy=0;exitPerimeter=0;" parent="1" edge="1">
          <mxGeometry relative="1" as="geometry">
            <mxPoint x="980.6099999999997" y="100" as="sourcePoint" />
            <mxPoint x="980" y="350" as="targetPoint" />
          </mxGeometry>
        </mxCell>
        <mxCell id="S5-y5zS6l2NAs_fPD0nN-28" value="" style="rounded=0;whiteSpace=wrap;html=1;" parent="1" vertex="1">
          <mxGeometry x="977.5" y="348" width="5" height="40" as="geometry" />
        </mxCell>
        <mxCell id="S5-y5zS6l2NAs_fPD0nN-29" value="&lt;span style=&quot;&quot;&gt;&lt;font style=&quot;font-size: 11px;&quot;&gt;&lt;br&gt;Hostel room avaibility&lt;br&gt;&lt;/font&gt;&lt;br&gt;&lt;/span&gt;" style="text;html=1;align=center;verticalAlign=middle;resizable=0;points=[];autosize=1;strokeColor=none;fillColor=none;" parent="1" vertex="1">
          <mxGeometry x="440" y="160" width="130" height="60" as="geometry" />
        </mxCell>
        <mxCell id="S5-y5zS6l2NAs_fPD0nN-30" value="Make payment&lt;br&gt;Payment information" style="text;html=1;align=center;verticalAlign=middle;resizable=0;points=[];autosize=1;strokeColor=none;fillColor=none;" parent="1" vertex="1">
          <mxGeometry x="641.5" y="200" width="130" height="40" as="geometry" />
        </mxCell>
        <mxCell id="S5-y5zS6l2NAs_fPD0nN-31" value="" style="edgeStyle=none;html=1;dashed=1;dashPattern=8 8;endArrow=none;endFill=0;entryX=0.5;entryY=0;entryDx=0;entryDy=0;" parent="1" target="S5-y5zS6l2NAs_fPD0nN-33" edge="1">
          <mxGeometry relative="1" as="geometry">
            <mxPoint x="114.49999999999977" y="100" as="sourcePoint" />
            <mxPoint x="115" y="280" as="targetPoint" />
          </mxGeometry>
        </mxCell>
        <mxCell id="S5-y5zS6l2NAs_fPD0nN-32" value="" style="endArrow=classic;html=1;endSize=4;startSize=4;exitX=1.5;exitY=0.022;exitDx=0;exitDy=0;exitPerimeter=0;entryX=0;entryY=0;entryDx=0;entryDy=0;" parent="1" target="S5-y5zS6l2NAs_fPD0nN-28" edge="1">
          <mxGeometry width="50" height="50" relative="1" as="geometry">
            <mxPoint x="375" y="348" as="sourcePoint" />
            <mxPoint x="940" y="349" as="targetPoint" />
          </mxGeometry>
        </mxCell>
        <mxCell id="S5-y5zS6l2NAs_fPD0nN-33" value="" style="rounded=0;whiteSpace=wrap;html=1;" parent="1" vertex="1">
          <mxGeometry x="112.5" y="310" width="5" height="80" as="geometry" />
        </mxCell>
        <mxCell id="S5-y5zS6l2NAs_fPD0nN-34" value="" style="endArrow=classic;html=1;endSize=4;startSize=4;" parent="1" edge="1">
          <mxGeometry width="50" height="50" relative="1" as="geometry">
            <mxPoint x="117.5" y="309.5" as="sourcePoint" />
            <mxPoint x="370" y="310" as="targetPoint" />
          </mxGeometry>
        </mxCell>
        <mxCell id="S5-y5zS6l2NAs_fPD0nN-35" value="" style="edgeStyle=none;html=1;dashed=1;dashPattern=8 8;endArrow=none;endFill=0;" parent="1" edge="1">
          <mxGeometry relative="1" as="geometry">
            <mxPoint x="371.4999999999998" y="203" as="sourcePoint" />
            <mxPoint x="371.9999999999998" y="313" as="targetPoint" />
          </mxGeometry>
        </mxCell>
        <mxCell id="S5-y5zS6l2NAs_fPD0nN-36" value="" style="rounded=0;whiteSpace=wrap;html=1;" parent="1" vertex="1">
          <mxGeometry x="369.5" y="308" width="5" height="40" as="geometry" />
        </mxCell>
        <mxCell id="S5-y5zS6l2NAs_fPD0nN-37" value="&lt;span style=&quot;color: rgb(0, 0, 0); font-family: Helvetica; font-size: 12px; font-style: normal; font-variant-ligatures: normal; font-variant-caps: normal; font-weight: 400; letter-spacing: normal; orphans: 2; text-align: center; text-indent: 0px; text-transform: none; widows: 2; word-spacing: 0px; -webkit-text-stroke-width: 0px; background-color: rgb(251, 251, 251); text-decoration-thickness: initial; text-decoration-style: initial; text-decoration-color: initial; float: none; display: inline !important;&quot;&gt;Login as Fellow/JKM&lt;/span&gt;" style="text;whiteSpace=wrap;html=1;fontSize=8;" parent="1" vertex="1">
          <mxGeometry x="254.5" y="285" width="120" height="40" as="geometry" />
        </mxCell>
        <mxCell id="S5-y5zS6l2NAs_fPD0nN-38" value="&lt;span style=&quot;color: rgb(0, 0, 0); font-family: Helvetica; font-size: 12px; font-style: normal; font-variant-ligatures: normal; font-variant-caps: normal; font-weight: 400; letter-spacing: normal; orphans: 2; text-align: center; text-indent: 0px; text-transform: none; widows: 2; word-spacing: 0px; -webkit-text-stroke-width: 0px; background-color: rgb(251, 251, 251); text-decoration-thickness: initial; text-decoration-style: initial; text-decoration-color: initial; float: none; display: inline !important;&quot;&gt;Update Student college merits&lt;/span&gt;" style="text;whiteSpace=wrap;html=1;fontSize=8;" parent="1" vertex="1">
          <mxGeometry x="850" y="307" width="150" height="40" as="geometry" />
        </mxCell>
        <mxCell id="S5-y5zS6l2NAs_fPD0nN-39" style="edgeStyle=none;curved=1;html=1;exitX=1;exitY=0.25;exitDx=0;exitDy=0;endArrow=classic;endFill=1;startSize=4;endSize=4;entryX=1;entryY=0.75;entryDx=0;entryDy=0;" parent="1" edge="1">
          <mxGeometry relative="1" as="geometry">
            <mxPoint x="982.5" y="377" as="targetPoint" />
            <Array as="points">
              <mxPoint x="1001" y="348" />
              <mxPoint x="1011" y="358" />
              <mxPoint x="1001" y="378" />
            </Array>
            <mxPoint x="982.94" y="357" as="sourcePoint" />
          </mxGeometry>
        </mxCell>
        <mxCell id="S5-y5zS6l2NAs_fPD0nN-40" value="&lt;span style=&quot;&quot;&gt;Quota active application &lt;br&gt;success rate&lt;/span&gt;" style="text;html=1;align=center;verticalAlign=middle;resizable=0;points=[];autosize=1;strokeColor=none;fillColor=none;" parent="1" vertex="1">
          <mxGeometry x="1000" y="348" width="150" height="40" as="geometry" />
        </mxCell>
        <mxCell id="S5-y5zS6l2NAs_fPD0nN-41" value="" style="rounded=0;whiteSpace=wrap;html=1;" parent="1" vertex="1">
          <mxGeometry x="172.5" y="440" width="5" height="130" as="geometry" />
        </mxCell>
        <mxCell id="S5-y5zS6l2NAs_fPD0nN-42" value="" style="endArrow=classic;html=1;endSize=4;startSize=4;" parent="1" edge="1">
          <mxGeometry width="50" height="50" relative="1" as="geometry">
            <mxPoint x="177.5" y="449" as="sourcePoint" />
            <mxPoint x="370" y="450" as="targetPoint" />
          </mxGeometry>
        </mxCell>
        <mxCell id="S5-y5zS6l2NAs_fPD0nN-43" value="" style="rounded=0;whiteSpace=wrap;html=1;" parent="1" vertex="1">
          <mxGeometry x="369.5" y="448" width="5" height="40" as="geometry" />
        </mxCell>
        <mxCell id="S5-y5zS6l2NAs_fPD0nN-44" value="&lt;span style=&quot;color: rgb(0, 0, 0); font-family: Helvetica; font-size: 12px; font-style: normal; font-variant-ligatures: normal; font-variant-caps: normal; font-weight: 400; letter-spacing: normal; orphans: 2; text-align: center; text-indent: 0px; text-transform: none; widows: 2; word-spacing: 0px; -webkit-text-stroke-width: 0px; background-color: rgb(251, 251, 251); text-decoration-thickness: initial; text-decoration-style: initial; text-decoration-color: initial; float: none; display: inline !important;&quot;&gt;Login as Admin&lt;/span&gt;" style="text;whiteSpace=wrap;html=1;fontSize=8;" parent="1" vertex="1">
          <mxGeometry x="280" y="420" width="120" height="40" as="geometry" />
        </mxCell>
        <mxCell id="S5-y5zS6l2NAs_fPD0nN-45" value="" style="edgeStyle=none;html=1;dashed=1;dashPattern=8 8;endArrow=none;endFill=0;entryX=0.5;entryY=0;entryDx=0;entryDy=0;" parent="1" target="S5-y5zS6l2NAs_fPD0nN-41" edge="1">
          <mxGeometry relative="1" as="geometry">
            <mxPoint x="175" y="100" as="sourcePoint" />
            <mxPoint x="175.5" y="280" as="targetPoint" />
          </mxGeometry>
        </mxCell>
        <mxCell id="S5-y5zS6l2NAs_fPD0nN-46" value="" style="edgeStyle=none;html=1;dashed=1;dashPattern=8 8;endArrow=none;endFill=0;" parent="1" edge="1">
          <mxGeometry relative="1" as="geometry">
            <mxPoint x="371.4999999999998" y="348.9999999999999" as="sourcePoint" />
            <mxPoint x="371.9999999999998" y="449" as="targetPoint" />
          </mxGeometry>
        </mxCell>
        <mxCell id="S5-y5zS6l2NAs_fPD0nN-47" value="" style="edgeStyle=none;html=1;entryX=0.5;entryY=0;entryDx=0;entryDy=0;dashed=1;dashPattern=8 8;endArrow=none;endFill=0;" parent="1" target="S5-y5zS6l2NAs_fPD0nN-48" edge="1">
          <mxGeometry relative="1" as="geometry">
            <mxPoint x="571.0000000000002" y="248" as="sourcePoint" />
            <mxPoint x="572.59" y="311.9999999999999" as="targetPoint" />
          </mxGeometry>
        </mxCell>
        <mxCell id="S5-y5zS6l2NAs_fPD0nN-48" value="" style="rounded=0;whiteSpace=wrap;html=1;" parent="1" vertex="1">
          <mxGeometry x="568" y="488" width="5" height="40" as="geometry" />
        </mxCell>
        <mxCell id="S5-y5zS6l2NAs_fPD0nN-49" value="" style="edgeStyle=none;html=1;entryX=0.5;entryY=0;entryDx=0;entryDy=0;dashed=1;dashPattern=8 8;endArrow=none;endFill=0;startArrow=none;" parent="1" edge="1">
          <mxGeometry relative="1" as="geometry">
            <mxPoint x="369.5899999999999" y="464.1042471042474" as="sourcePoint" />
            <mxPoint x="369.4999999999998" y="464" as="targetPoint" />
          </mxGeometry>
        </mxCell>
        <mxCell id="S5-y5zS6l2NAs_fPD0nN-50" value="" style="endArrow=classic;html=1;endSize=4;startSize=4;entryX=0;entryY=0;entryDx=0;entryDy=0;" parent="1" edge="1">
          <mxGeometry width="50" height="50" relative="1" as="geometry">
            <mxPoint x="374.5899999999999" y="487" as="sourcePoint" />
            <mxPoint x="568.0900000000001" y="487" as="targetPoint" />
          </mxGeometry>
        </mxCell>
        <mxCell id="S5-y5zS6l2NAs_fPD0nN-51" value="&lt;span style=&quot;color: rgb(0, 0, 0); font-family: Helvetica; font-size: 12px; font-style: normal; font-variant-ligatures: normal; font-variant-caps: normal; font-weight: 400; letter-spacing: normal; orphans: 2; text-align: center; text-indent: 0px; text-transform: none; widows: 2; word-spacing: 0px; -webkit-text-stroke-width: 0px; background-color: rgb(251, 251, 251); text-decoration-thickness: initial; text-decoration-style: initial; text-decoration-color: initial; float: none; display: inline !important;&quot;&gt;Room allocation&lt;/span&gt;" style="text;whiteSpace=wrap;html=1;fontSize=8;" parent="1" vertex="1">
          <mxGeometry x="470" y="460" width="120" height="40" as="geometry" />
        </mxCell>
        <mxCell id="S5-y5zS6l2NAs_fPD0nN-52" value="" style="edgeStyle=none;html=1;dashed=1;dashPattern=8 8;endArrow=none;endFill=0;exitX=0.419;exitY=1.082;exitDx=0;exitDy=0;exitPerimeter=0;entryX=0.5;entryY=0;entryDx=0;entryDy=0;" parent="1" target="S5-y5zS6l2NAs_fPD0nN-89" edge="1">
          <mxGeometry relative="1" as="geometry">
            <mxPoint x="980.6099999999997" y="388" as="sourcePoint" />
            <mxPoint x="980" y="638" as="targetPoint" />
          </mxGeometry>
        </mxCell>
        <mxCell id="S5-y5zS6l2NAs_fPD0nN-53" value="" style="rounded=0;whiteSpace=wrap;html=1;" parent="1" vertex="1">
          <mxGeometry x="977.5" y="526" width="5" height="40" as="geometry" />
        </mxCell>
        <mxCell id="S5-y5zS6l2NAs_fPD0nN-54" value="" style="edgeStyle=none;html=1;entryX=0.5;entryY=0;entryDx=0;entryDy=0;dashed=1;dashPattern=8 8;endArrow=none;endFill=0;startArrow=none;" parent="1" edge="1">
          <mxGeometry relative="1" as="geometry">
            <mxPoint x="568.0900000000001" y="504.1042471042474" as="sourcePoint" />
            <mxPoint x="568" y="504" as="targetPoint" />
          </mxGeometry>
        </mxCell>
        <mxCell id="S5-y5zS6l2NAs_fPD0nN-55" value="" style="endArrow=classic;html=1;endSize=4;startSize=4;entryX=0.25;entryY=0;entryDx=0;entryDy=0;" parent="1" target="S5-y5zS6l2NAs_fPD0nN-53" edge="1">
          <mxGeometry width="50" height="50" relative="1" as="geometry">
            <mxPoint x="573.0900000000001" y="527" as="sourcePoint" />
            <mxPoint x="960" y="527" as="targetPoint" />
          </mxGeometry>
        </mxCell>
        <mxCell id="S5-y5zS6l2NAs_fPD0nN-56" value="&lt;span style=&quot;font-size: 12px; text-align: center;&quot;&gt;Overview reports&lt;/span&gt;" style="text;whiteSpace=wrap;html=1;fontSize=8;" parent="1" vertex="1">
          <mxGeometry x="880" y="500" width="120" height="40" as="geometry" />
        </mxCell>
        <mxCell id="S5-y5zS6l2NAs_fPD0nN-57" style="edgeStyle=none;curved=1;html=1;exitX=0;exitY=1;exitDx=0;exitDy=0;endArrow=classic;endFill=1;startSize=4;endSize=4;dashed=1;" parent="1" source="S5-y5zS6l2NAs_fPD0nN-26" edge="1">
          <mxGeometry relative="1" as="geometry">
            <mxPoint x="57.5" y="275" as="targetPoint" />
            <mxPoint x="975" y="280" as="sourcePoint" />
          </mxGeometry>
        </mxCell>
        <mxCell id="S5-y5zS6l2NAs_fPD0nN-58" value="" style="edgeStyle=none;html=1;dashed=1;dashPattern=8 8;endArrow=none;endFill=0;exitX=0.25;exitY=1;exitDx=0;exitDy=0;entryX=0.5;entryY=0;entryDx=0;entryDy=0;entryPerimeter=0;" parent="1" source="S5-y5zS6l2NAs_fPD0nN-9" target="S5-y5zS6l2NAs_fPD0nN-5" edge="1">
          <mxGeometry relative="1" as="geometry">
            <mxPoint x="54.58" y="560" as="sourcePoint" />
            <mxPoint x="55" y="980" as="targetPoint" />
          </mxGeometry>
        </mxCell>
        <mxCell id="S5-y5zS6l2NAs_fPD0nN-59" style="edgeStyle=none;curved=1;html=1;exitX=0;exitY=1;exitDx=0;exitDy=0;endArrow=classic;endFill=1;startSize=4;endSize=4;dashed=1;" parent="1" edge="1">
          <mxGeometry relative="1" as="geometry">
            <mxPoint x="120" y="388" as="targetPoint" />
            <mxPoint x="977.5" y="388" as="sourcePoint" />
          </mxGeometry>
        </mxCell>
        <mxCell id="S5-y5zS6l2NAs_fPD0nN-60" value="" style="edgeStyle=none;html=1;dashed=1;dashPattern=8 8;endArrow=none;endFill=0;exitX=0.25;exitY=1;exitDx=0;exitDy=0;entryX=0.5;entryY=0;entryDx=0;entryDy=0;entryPerimeter=0;" parent="1" target="S5-y5zS6l2NAs_fPD0nN-8" edge="1">
          <mxGeometry relative="1" as="geometry">
            <mxPoint x="114.38000000000011" y="388" as="sourcePoint" />
            <mxPoint x="116" y="980" as="targetPoint" />
          </mxGeometry>
        </mxCell>
        <mxCell id="S5-y5zS6l2NAs_fPD0nN-61" style="edgeStyle=none;curved=1;html=1;endArrow=classic;endFill=1;startSize=4;endSize=4;dashed=1;" parent="1" edge="1">
          <mxGeometry relative="1" as="geometry">
            <mxPoint x="177.5" y="367.28999999999996" as="targetPoint" />
            <mxPoint x="980" y="367" as="sourcePoint" />
          </mxGeometry>
        </mxCell>
        <mxCell id="S5-y5zS6l2NAs_fPD0nN-62" value="&lt;span style=&quot;color: rgb(0, 0, 0); font-family: Helvetica; font-size: 12px; font-style: normal; font-variant-ligatures: normal; font-variant-caps: normal; font-weight: 400; letter-spacing: normal; orphans: 2; text-align: center; text-indent: 0px; text-transform: none; widows: 2; word-spacing: 0px; -webkit-text-stroke-width: 0px; background-color: rgb(251, 251, 251); text-decoration-thickness: initial; text-decoration-style: initial; text-decoration-color: initial; float: none; display: inline !important;&quot;&gt;Quota&amp;nbsp;&lt;/span&gt;&lt;span style=&quot;font-size: 12px; text-align: center;&quot;&gt;active application&amp;nbsp;&lt;/span&gt;&lt;span style=&quot;font-size: 12px; text-align: center;&quot;&gt;success rate updated info&lt;/span&gt;" style="text;whiteSpace=wrap;html=1;fontSize=8;" parent="1" vertex="1">
          <mxGeometry x="226.75" y="347" width="313.25" height="20" as="geometry" />
        </mxCell>
        <mxCell id="S5-y5zS6l2NAs_fPD0nN-63" style="edgeStyle=none;curved=1;html=1;endArrow=classic;endFill=1;startSize=4;endSize=4;dashed=1;" parent="1" edge="1">
          <mxGeometry relative="1" as="geometry">
            <mxPoint x="177.5" y="566.29" as="targetPoint" />
            <mxPoint x="980" y="566" as="sourcePoint" />
          </mxGeometry>
        </mxCell>
        <mxCell id="S5-y5zS6l2NAs_fPD0nN-64" value="" style="edgeStyle=none;html=1;dashed=1;dashPattern=8 8;endArrow=none;endFill=0;entryX=0.5;entryY=0;entryDx=0;entryDy=0;entryPerimeter=0;" parent="1" target="S5-y5zS6l2NAs_fPD0nN-6" edge="1">
          <mxGeometry relative="1" as="geometry">
            <mxPoint x="174.28999999999996" y="570" as="sourcePoint" />
            <mxPoint x="170" y="980" as="targetPoint" />
          </mxGeometry>
        </mxCell>
        <mxCell id="S5-y5zS6l2NAs_fPD0nN-65" value="" style="endArrow=classic;html=1;endSize=4;startSize=4;entryX=0;entryY=0;entryDx=0;entryDy=0;" parent="1" target="S5-y5zS6l2NAs_fPD0nN-66" edge="1">
          <mxGeometry width="50" height="50" relative="1" as="geometry">
            <mxPoint x="226.75" y="701" as="sourcePoint" />
            <mxPoint x="419.25" y="702" as="targetPoint" />
          </mxGeometry>
        </mxCell>
        <mxCell id="S5-y5zS6l2NAs_fPD0nN-66" value="" style="rounded=0;whiteSpace=wrap;html=1;" parent="1" vertex="1">
          <mxGeometry x="369.5" y="701" width="5" height="40" as="geometry" />
        </mxCell>
        <mxCell id="S5-y5zS6l2NAs_fPD0nN-67" value="" style="edgeStyle=none;html=1;entryX=0.5;entryY=0;entryDx=0;entryDy=0;dashed=1;dashPattern=8 8;endArrow=none;endFill=0;startArrow=none;" parent="1" edge="1">
          <mxGeometry relative="1" as="geometry">
            <mxPoint x="369.5899999999999" y="717.1042471042474" as="sourcePoint" />
            <mxPoint x="369.4999999999998" y="717" as="targetPoint" />
          </mxGeometry>
        </mxCell>
        <mxCell id="S5-y5zS6l2NAs_fPD0nN-68" value="" style="rounded=0;whiteSpace=wrap;html=1;" parent="1" vertex="1">
          <mxGeometry x="221.75" y="700" width="5" height="120" as="geometry" />
        </mxCell>
        <mxCell id="S5-y5zS6l2NAs_fPD0nN-69" value="" style="edgeStyle=none;html=1;dashed=1;dashPattern=8 8;endArrow=none;endFill=0;entryX=0.5;entryY=0;entryDx=0;entryDy=0;" parent="1" target="S5-y5zS6l2NAs_fPD0nN-68" edge="1">
          <mxGeometry relative="1" as="geometry">
            <mxPoint x="225" y="100" as="sourcePoint" />
            <mxPoint x="225.5" y="280" as="targetPoint" />
          </mxGeometry>
        </mxCell>
        <mxCell id="S5-y5zS6l2NAs_fPD0nN-70" value="&lt;span style=&quot;color: rgb(0, 0, 0); font-family: Helvetica; font-size: 12px; font-style: normal; font-variant-ligatures: normal; font-variant-caps: normal; font-weight: 400; letter-spacing: normal; orphans: 2; text-align: center; text-indent: 0px; text-transform: none; widows: 2; word-spacing: 0px; -webkit-text-stroke-width: 0px; background-color: rgb(251, 251, 251); text-decoration-thickness: initial; text-decoration-style: initial; text-decoration-color: initial; float: none; display: inline !important;&quot;&gt;Login as Staff&lt;/span&gt;" style="text;whiteSpace=wrap;html=1;fontSize=8;" parent="1" vertex="1">
          <mxGeometry x="290" y="670" width="120" height="40" as="geometry" />
        </mxCell>
        <mxCell id="S5-y5zS6l2NAs_fPD0nN-71" value="" style="edgeStyle=none;html=1;dashed=1;dashPattern=8 8;endArrow=none;endFill=0;entryX=0.5;entryY=0;entryDx=0;entryDy=0;" parent="1" target="S5-y5zS6l2NAs_fPD0nN-66" edge="1">
          <mxGeometry relative="1" as="geometry">
            <mxPoint x="371.9999999999998" y="490" as="sourcePoint" />
            <mxPoint x="460" y="670" as="targetPoint" />
          </mxGeometry>
        </mxCell>
        <mxCell id="S5-y5zS6l2NAs_fPD0nN-72" value="" style="edgeStyle=none;html=1;entryX=0.5;entryY=0;entryDx=0;entryDy=0;dashed=1;dashPattern=8 8;endArrow=none;endFill=0;startArrow=none;" parent="1" edge="1">
          <mxGeometry relative="1" as="geometry">
            <mxPoint x="369.5899999999999" y="716.1042471042474" as="sourcePoint" />
            <mxPoint x="369.4999999999998" y="716" as="targetPoint" />
          </mxGeometry>
        </mxCell>
        <mxCell id="S5-y5zS6l2NAs_fPD0nN-73" value="" style="endArrow=classic;html=1;endSize=4;startSize=4;entryX=0;entryY=0;entryDx=0;entryDy=0;" parent="1" edge="1">
          <mxGeometry width="50" height="50" relative="1" as="geometry">
            <mxPoint x="374.5899999999999" y="739" as="sourcePoint" />
            <mxPoint x="568.0900000000001" y="739" as="targetPoint" />
          </mxGeometry>
        </mxCell>
        <mxCell id="S5-y5zS6l2NAs_fPD0nN-74" value="" style="edgeStyle=none;html=1;entryX=0.5;entryY=0;entryDx=0;entryDy=0;dashed=1;dashPattern=8 8;endArrow=none;endFill=0;startArrow=none;" parent="1" edge="1">
          <mxGeometry relative="1" as="geometry">
            <mxPoint x="568.0900000000001" y="756.1042471042474" as="sourcePoint" />
            <mxPoint x="568" y="756" as="targetPoint" />
          </mxGeometry>
        </mxCell>
        <mxCell id="S5-y5zS6l2NAs_fPD0nN-75" value="" style="rounded=0;whiteSpace=wrap;html=1;" parent="1" vertex="1">
          <mxGeometry x="568" y="740" width="5" height="40" as="geometry" />
        </mxCell>
        <mxCell id="S5-y5zS6l2NAs_fPD0nN-76" value="" style="edgeStyle=none;html=1;entryX=0.5;entryY=0;entryDx=0;entryDy=0;dashed=1;dashPattern=8 8;endArrow=none;endFill=0;startArrow=none;" parent="1" edge="1">
          <mxGeometry relative="1" as="geometry">
            <mxPoint x="568.0900000000001" y="756.1042471042474" as="sourcePoint" />
            <mxPoint x="568" y="756" as="targetPoint" />
          </mxGeometry>
        </mxCell>
        <mxCell id="S5-y5zS6l2NAs_fPD0nN-77" value="&lt;span style=&quot;&quot;&gt;&lt;font style=&quot;font-size: 11px;&quot;&gt;Online control&lt;/font&gt;&lt;br&gt;&lt;/span&gt;" style="text;html=1;align=center;verticalAlign=middle;resizable=0;points=[];autosize=1;strokeColor=none;fillColor=none;" parent="1" vertex="1">
          <mxGeometry x="478" y="710" width="90" height="30" as="geometry" />
        </mxCell>
        <mxCell id="S5-y5zS6l2NAs_fPD0nN-78" value="" style="rounded=0;whiteSpace=wrap;html=1;" parent="1" vertex="1">
          <mxGeometry x="767.5" y="779" width="3.5" height="40" as="geometry" />
        </mxCell>
        <mxCell id="S5-y5zS6l2NAs_fPD0nN-79" value="" style="endArrow=classic;html=1;endSize=4;startSize=4;entryX=0;entryY=0;entryDx=0;entryDy=0;" parent="1" target="S5-y5zS6l2NAs_fPD0nN-78" edge="1">
          <mxGeometry width="50" height="50" relative="1" as="geometry">
            <mxPoint x="574" y="779" as="sourcePoint" />
            <mxPoint x="886.5" y="779" as="targetPoint" />
          </mxGeometry>
        </mxCell>
        <mxCell id="S5-y5zS6l2NAs_fPD0nN-80" value="" style="rounded=0;whiteSpace=wrap;html=1;" parent="1" vertex="1">
          <mxGeometry x="767.5" y="779" width="5" height="40" as="geometry" />
        </mxCell>
        <mxCell id="S5-y5zS6l2NAs_fPD0nN-81" value="&lt;span style=&quot;&quot;&gt;Payment information&lt;/span&gt;" style="text;html=1;align=center;verticalAlign=middle;resizable=0;points=[];autosize=1;strokeColor=none;fillColor=none;" parent="1" vertex="1">
          <mxGeometry x="642.5" y="754" width="130" height="30" as="geometry" />
        </mxCell>
        <mxCell id="S5-y5zS6l2NAs_fPD0nN-82" value="" style="edgeStyle=none;html=1;dashed=1;dashPattern=8 8;endArrow=none;endFill=0;entryX=0.5;entryY=0;entryDx=0;entryDy=0;" parent="1" target="S5-y5zS6l2NAs_fPD0nN-75" edge="1">
          <mxGeometry relative="1" as="geometry">
            <mxPoint x="570.4099999999999" y="528" as="sourcePoint" />
            <mxPoint x="600" y="730" as="targetPoint" />
          </mxGeometry>
        </mxCell>
        <mxCell id="S5-y5zS6l2NAs_fPD0nN-83" value="" style="rounded=0;whiteSpace=wrap;html=1;" parent="1" vertex="1">
          <mxGeometry x="767.5" y="779" width="3.5" height="40" as="geometry" />
        </mxCell>
        <mxCell id="S5-y5zS6l2NAs_fPD0nN-84" value="" style="rounded=0;whiteSpace=wrap;html=1;" parent="1" vertex="1">
          <mxGeometry x="767.5" y="779" width="5" height="40" as="geometry" />
        </mxCell>
        <mxCell id="S5-y5zS6l2NAs_fPD0nN-85" value="" style="edgeStyle=none;html=1;dashed=1;dashPattern=8 8;endArrow=none;endFill=0;exitX=0.419;exitY=1.082;exitDx=0;exitDy=0;exitPerimeter=0;entryX=0.5;entryY=0;entryDx=0;entryDy=0;" parent="1" target="S5-y5zS6l2NAs_fPD0nN-84" edge="1">
          <mxGeometry relative="1" as="geometry">
            <mxPoint x="769.27" y="281.23" as="sourcePoint" />
            <mxPoint x="768.66" y="418.77" as="targetPoint" />
          </mxGeometry>
        </mxCell>
        <mxCell id="S5-y5zS6l2NAs_fPD0nN-86" style="edgeStyle=none;curved=1;html=1;endArrow=classic;endFill=1;startSize=4;endSize=4;dashed=1;exitX=0.5;exitY=1;exitDx=0;exitDy=0;entryX=0.5;entryY=1;entryDx=0;entryDy=0;startArrow=none;" parent="1" source="S5-y5zS6l2NAs_fPD0nN-123" target="S5-y5zS6l2NAs_fPD0nN-68" edge="1">
          <mxGeometry relative="1" as="geometry">
            <mxPoint x="226.75" y="798.6999999999997" as="targetPoint" />
            <mxPoint x="1029.25" y="798.4099999999997" as="sourcePoint" />
          </mxGeometry>
        </mxCell>
        <mxCell id="S5-y5zS6l2NAs_fPD0nN-87" value="" style="edgeStyle=none;html=1;dashed=1;dashPattern=8 8;endArrow=none;endFill=0;entryX=0.5;entryY=0;entryDx=0;entryDy=0;entryPerimeter=0;" parent="1" target="S5-y5zS6l2NAs_fPD0nN-7" edge="1">
          <mxGeometry relative="1" as="geometry">
            <mxPoint x="224.41000000000008" y="820" as="sourcePoint" />
            <mxPoint x="310" y="940" as="targetPoint" />
          </mxGeometry>
        </mxCell>
        <mxCell id="S5-y5zS6l2NAs_fPD0nN-88" value="Authentication Subsystem" style="rounded=0;whiteSpace=wrap;html=1;shadow=0;fillColor=#f5f5f5;strokeColor=#666666;fontColor=#333333;" parent="1" vertex="1">
          <mxGeometry x="290" y="1020" width="160" height="30" as="geometry" />
        </mxCell>
        <mxCell id="S5-y5zS6l2NAs_fPD0nN-89" value="Report &amp;amp; Analytic Subsystem" style="rounded=0;whiteSpace=wrap;html=1;shadow=0;fillColor=#f5f5f5;strokeColor=#666666;fontColor=#333333;" parent="1" vertex="1">
          <mxGeometry x="900" y="1020" width="160" height="30" as="geometry" />
        </mxCell>
        <mxCell id="S5-y5zS6l2NAs_fPD0nN-90" value="Payment Management Subsystem" style="rounded=0;whiteSpace=wrap;html=1;shadow=0;fillColor=#f5f5f5;strokeColor=#666666;fontColor=#333333;" parent="1" vertex="1">
          <mxGeometry x="690" y="1020" width="190" height="30" as="geometry" />
        </mxCell>
        <mxCell id="S5-y5zS6l2NAs_fPD0nN-91" value="Room Management Subsystem" style="rounded=0;whiteSpace=wrap;html=1;shadow=0;fillColor=#f5f5f5;strokeColor=#666666;fontColor=#333333;" parent="1" vertex="1">
          <mxGeometry x="480" y="1020" width="190" height="30" as="geometry" />
        </mxCell>
        <mxCell id="S5-y5zS6l2NAs_fPD0nN-92" value="" style="edgeStyle=none;html=1;dashed=1;dashPattern=8 8;endArrow=none;endFill=0;exitX=0.5;exitY=1;exitDx=0;exitDy=0;" parent="1" source="S5-y5zS6l2NAs_fPD0nN-66" edge="1">
          <mxGeometry relative="1" as="geometry">
            <mxPoint x="382" y="500" as="sourcePoint" />
            <mxPoint x="371.9999999999998" y="1020" as="targetPoint" />
          </mxGeometry>
        </mxCell>
        <mxCell id="S5-y5zS6l2NAs_fPD0nN-93" value="" style="edgeStyle=none;html=1;dashed=1;dashPattern=8 8;endArrow=none;endFill=0;entryX=0.474;entryY=0.333;entryDx=0;entryDy=0;entryPerimeter=0;" parent="1" target="S5-y5zS6l2NAs_fPD0nN-91" edge="1">
          <mxGeometry relative="1" as="geometry">
            <mxPoint x="569.9099999999999" y="790" as="sourcePoint" />
            <mxPoint x="570" y="1010" as="targetPoint" />
          </mxGeometry>
        </mxCell>
        <mxCell id="S5-y5zS6l2NAs_fPD0nN-94" value="" style="edgeStyle=none;html=1;dashed=1;dashPattern=8 8;endArrow=none;endFill=0;entryX=0.42;entryY=-0.09;entryDx=0;entryDy=0;entryPerimeter=0;" parent="1" target="S5-y5zS6l2NAs_fPD0nN-90" edge="1">
          <mxGeometry relative="1" as="geometry">
            <mxPoint x="770" y="830" as="sourcePoint" />
            <mxPoint x="770" y="1040.9999999999998" as="targetPoint" />
          </mxGeometry>
        </mxCell>
        <mxCell id="S5-y5zS6l2NAs_fPD0nN-95" value="&lt;span style=&quot;&quot;&gt;Room occupancy rate/&lt;br&gt;&lt;/span&gt;&lt;span style=&quot;&quot;&gt;College maintenance report/&lt;br&gt;&lt;/span&gt;&lt;span style=&quot;&quot;&gt;Quota active application success rate&lt;/span&gt;&lt;span style=&quot;&quot;&gt;&lt;br&gt;&lt;/span&gt;" style="text;html=1;align=center;verticalAlign=middle;resizable=0;points=[];autosize=1;strokeColor=none;fillColor=none;" parent="1" vertex="1">
          <mxGeometry x="772.5" y="560" width="220" height="60" as="geometry" />
        </mxCell>
        <mxCell id="S5-y5zS6l2NAs_fPD0nN-96" style="edgeStyle=none;curved=1;html=1;exitX=0;exitY=1;exitDx=0;exitDy=0;endArrow=classic;endFill=1;startSize=4;endSize=4;dashed=1;" parent="1" edge="1">
          <mxGeometry relative="1" as="geometry">
            <mxPoint x="227" y="258" as="targetPoint" />
            <mxPoint x="764.5" y="262.5" as="sourcePoint" />
          </mxGeometry>
        </mxCell>
        <mxCell id="S5-y5zS6l2NAs_fPD0nN-97" value="Payment receipt &amp;amp; history" style="text;html=1;align=center;verticalAlign=middle;resizable=0;points=[];autosize=1;strokeColor=none;fillColor=none;" parent="1" vertex="1">
          <mxGeometry x="612.5" y="255" width="160" height="30" as="geometry" />
        </mxCell>
        <mxCell id="S5-y5zS6l2NAs_fPD0nN-98" value="Payment notification" style="text;html=1;align=center;verticalAlign=middle;resizable=0;points=[];autosize=1;strokeColor=none;fillColor=none;" parent="1" vertex="1">
          <mxGeometry x="642.5" y="240" width="130" height="30" as="geometry" />
        </mxCell>
        <mxCell id="S5-y5zS6l2NAs_fPD0nN-99" style="edgeStyle=none;curved=1;html=1;exitX=1;exitY=0.25;exitDx=0;exitDy=0;endArrow=classic;endFill=1;startSize=4;endSize=4;entryX=1;entryY=0.75;entryDx=0;entryDy=0;" parent="1" edge="1">
          <mxGeometry relative="1" as="geometry">
            <mxPoint x="374.5" y="189" as="targetPoint" />
            <Array as="points">
              <mxPoint x="393" y="160" />
              <mxPoint x="403" y="170" />
              <mxPoint x="393" y="190" />
            </Array>
            <mxPoint x="374.94000000000005" y="169" as="sourcePoint" />
          </mxGeometry>
        </mxCell>
        <mxCell id="S5-y5zS6l2NAs_fPD0nN-100" value="Correct &lt;br&gt;password" style="text;html=1;align=center;verticalAlign=middle;resizable=0;points=[];autosize=1;strokeColor=none;fillColor=none;" parent="1" vertex="1">
          <mxGeometry x="390" y="150" width="70" height="40" as="geometry" />
        </mxCell>
        <mxCell id="S5-y5zS6l2NAs_fPD0nN-101" style="edgeStyle=none;curved=1;html=1;exitX=0;exitY=1;exitDx=0;exitDy=0;endArrow=classic;endFill=1;startSize=4;endSize=4;dashed=1;" parent="1" edge="1">
          <mxGeometry relative="1" as="geometry">
            <mxPoint x="60" y="203" as="targetPoint" />
            <mxPoint x="366.25" y="202.5" as="sourcePoint" />
          </mxGeometry>
        </mxCell>
        <mxCell id="S5-y5zS6l2NAs_fPD0nN-102" value="Incorrect &lt;br&gt;password" style="text;html=1;align=center;verticalAlign=middle;resizable=0;points=[];autosize=1;strokeColor=none;fillColor=none;" parent="1" vertex="1">
          <mxGeometry x="304.5" y="163" width="70" height="40" as="geometry" />
        </mxCell>
        <mxCell id="S5-y5zS6l2NAs_fPD0nN-103" style="edgeStyle=none;curved=1;html=1;exitX=1;exitY=0.25;exitDx=0;exitDy=0;endArrow=classic;endFill=1;startSize=4;endSize=4;entryX=1;entryY=0.75;entryDx=0;entryDy=0;" parent="1" edge="1">
          <mxGeometry relative="1" as="geometry">
            <mxPoint x="573" y="229" as="targetPoint" />
            <Array as="points">
              <mxPoint x="591.5" y="200" />
              <mxPoint x="601.5" y="210" />
              <mxPoint x="591.5" y="230" />
            </Array>
            <mxPoint x="573.44" y="209" as="sourcePoint" />
          </mxGeometry>
        </mxCell>
        <mxCell id="S5-y5zS6l2NAs_fPD0nN-104" value="&lt;span style=&quot;&quot;&gt;Real time room availability/&lt;br&gt;&lt;/span&gt;&lt;span style=&quot;&quot;&gt;Room preferences/&lt;br&gt;&lt;/span&gt;&lt;span style=&quot;&quot;&gt;Room allocation&lt;/span&gt;&lt;span style=&quot;&quot;&gt;&lt;br&gt;&lt;/span&gt;" style="text;html=1;align=center;verticalAlign=middle;resizable=0;points=[];autosize=1;strokeColor=none;fillColor=none;" parent="1" vertex="1">
          <mxGeometry x="568" y="150" width="170" height="60" as="geometry" />
        </mxCell>
        <mxCell id="S5-y5zS6l2NAs_fPD0nN-105" style="edgeStyle=none;curved=1;html=1;endArrow=classic;endFill=1;startSize=4;endSize=4;dashed=1;" parent="1" edge="1">
          <mxGeometry relative="1" as="geometry">
            <mxPoint x="174" y="240" as="targetPoint" />
            <mxPoint x="570" y="240" as="sourcePoint" />
          </mxGeometry>
        </mxCell>
        <mxCell id="S5-y5zS6l2NAs_fPD0nN-106" value="&lt;span style=&quot;&quot;&gt;Updated room allocation&lt;br&gt;&lt;/span&gt;" style="text;html=1;align=center;verticalAlign=middle;resizable=0;points=[];autosize=1;strokeColor=none;fillColor=none;" parent="1" vertex="1">
          <mxGeometry x="423" y="213" width="150" height="30" as="geometry" />
        </mxCell>
        <mxCell id="S5-y5zS6l2NAs_fPD0nN-107" style="edgeStyle=none;curved=1;html=1;exitX=1;exitY=0.25;exitDx=0;exitDy=0;endArrow=classic;endFill=1;startSize=4;endSize=4;entryX=1;entryY=0.75;entryDx=0;entryDy=0;" parent="1" edge="1">
          <mxGeometry relative="1" as="geometry">
            <mxPoint x="770" y="269" as="targetPoint" />
            <Array as="points">
              <mxPoint x="788.5" y="240" />
              <mxPoint x="798.5" y="250" />
              <mxPoint x="788.5" y="270" />
            </Array>
            <mxPoint x="770.44" y="249" as="sourcePoint" />
          </mxGeometry>
        </mxCell>
        <mxCell id="S5-y5zS6l2NAs_fPD0nN-108" value="Payment method" style="text;html=1;align=center;verticalAlign=middle;resizable=0;points=[];autosize=1;strokeColor=none;fillColor=none;" parent="1" vertex="1">
          <mxGeometry x="807.5" y="245" width="110" height="30" as="geometry" />
        </mxCell>
        <mxCell id="S5-y5zS6l2NAs_fPD0nN-109" style="edgeStyle=none;curved=1;html=1;exitX=1;exitY=0.25;exitDx=0;exitDy=0;endArrow=classic;endFill=1;startSize=4;endSize=4;entryX=1;entryY=0.75;entryDx=0;entryDy=0;" parent="1" edge="1">
          <mxGeometry relative="1" as="geometry">
            <mxPoint x="374.5" y="339" as="targetPoint" />
            <Array as="points">
              <mxPoint x="393" y="310" />
              <mxPoint x="403" y="320" />
              <mxPoint x="393" y="340" />
            </Array>
            <mxPoint x="374.94000000000005" y="319" as="sourcePoint" />
          </mxGeometry>
        </mxCell>
        <mxCell id="S5-y5zS6l2NAs_fPD0nN-110" value="Correct &lt;br&gt;password" style="text;html=1;align=center;verticalAlign=middle;resizable=0;points=[];autosize=1;strokeColor=none;fillColor=none;" parent="1" vertex="1">
          <mxGeometry x="390" y="300" width="70" height="40" as="geometry" />
        </mxCell>
        <mxCell id="S5-y5zS6l2NAs_fPD0nN-111" value="" style="edgeStyle=none;html=1;entryX=0.5;entryY=0;entryDx=0;entryDy=0;dashed=1;dashPattern=8 8;endArrow=none;endFill=0;startArrow=none;" parent="1" edge="1">
          <mxGeometry relative="1" as="geometry">
            <mxPoint x="368.5899999999999" y="324.6042471042475" as="sourcePoint" />
            <mxPoint x="368.49999999999955" y="324.5" as="targetPoint" />
          </mxGeometry>
        </mxCell>
        <mxCell id="S5-y5zS6l2NAs_fPD0nN-112" style="edgeStyle=none;curved=1;html=1;exitX=0;exitY=1;exitDx=0;exitDy=0;endArrow=classic;endFill=1;startSize=4;endSize=4;dashed=1;" parent="1" edge="1">
          <mxGeometry relative="1" as="geometry">
            <mxPoint x="120" y="348" as="targetPoint" />
            <mxPoint x="365.3399999999999" y="347" as="sourcePoint" />
          </mxGeometry>
        </mxCell>
        <mxCell id="S5-y5zS6l2NAs_fPD0nN-113" value="Incorrect &lt;br&gt;password" style="text;html=1;align=center;verticalAlign=middle;resizable=0;points=[];autosize=1;strokeColor=none;fillColor=none;" parent="1" vertex="1">
          <mxGeometry x="299.5" y="310" width="70" height="40" as="geometry" />
        </mxCell>
        <mxCell id="S5-y5zS6l2NAs_fPD0nN-114" style="edgeStyle=none;curved=1;html=1;exitX=1;exitY=0.25;exitDx=0;exitDy=0;endArrow=classic;endFill=1;startSize=4;endSize=4;entryX=1;entryY=0.75;entryDx=0;entryDy=0;" parent="1" edge="1">
          <mxGeometry relative="1" as="geometry">
            <mxPoint x="374.5" y="479" as="targetPoint" />
            <Array as="points">
              <mxPoint x="393" y="450" />
              <mxPoint x="403" y="460" />
              <mxPoint x="393" y="480" />
            </Array>
            <mxPoint x="374.94000000000005" y="459" as="sourcePoint" />
          </mxGeometry>
        </mxCell>
        <mxCell id="S5-y5zS6l2NAs_fPD0nN-115" value="Correct &lt;br&gt;password" style="text;html=1;align=center;verticalAlign=middle;resizable=0;points=[];autosize=1;strokeColor=none;fillColor=none;" parent="1" vertex="1">
          <mxGeometry x="390" y="440" width="70" height="40" as="geometry" />
        </mxCell>
        <mxCell id="S5-y5zS6l2NAs_fPD0nN-116" style="edgeStyle=none;curved=1;html=1;exitX=0;exitY=1;exitDx=0;exitDy=0;endArrow=classic;endFill=1;startSize=4;endSize=4;dashed=1;" parent="1" edge="1">
          <mxGeometry relative="1" as="geometry">
            <mxPoint x="180" y="488" as="targetPoint" />
            <mxPoint x="369.5" y="487" as="sourcePoint" />
          </mxGeometry>
        </mxCell>
        <mxCell id="S5-y5zS6l2NAs_fPD0nN-117" value="Incorrect &lt;br&gt;password" style="text;html=1;align=center;verticalAlign=middle;resizable=0;points=[];autosize=1;strokeColor=none;fillColor=none;" parent="1" vertex="1">
          <mxGeometry x="299.5" y="448" width="70" height="40" as="geometry" />
        </mxCell>
        <mxCell id="S5-y5zS6l2NAs_fPD0nN-118" style="edgeStyle=none;curved=1;html=1;exitX=1;exitY=0.25;exitDx=0;exitDy=0;endArrow=classic;endFill=1;startSize=4;endSize=4;entryX=1;entryY=0.75;entryDx=0;entryDy=0;" parent="1" edge="1">
          <mxGeometry relative="1" as="geometry">
            <mxPoint x="374.5" y="729" as="targetPoint" />
            <Array as="points">
              <mxPoint x="393" y="700" />
              <mxPoint x="403" y="710" />
              <mxPoint x="393" y="730" />
            </Array>
            <mxPoint x="374.94000000000005" y="709" as="sourcePoint" />
          </mxGeometry>
        </mxCell>
        <mxCell id="S5-y5zS6l2NAs_fPD0nN-119" value="Correct &lt;br&gt;password" style="text;html=1;align=center;verticalAlign=middle;resizable=0;points=[];autosize=1;strokeColor=none;fillColor=none;" parent="1" vertex="1">
          <mxGeometry x="390" y="690" width="70" height="40" as="geometry" />
        </mxCell>
        <mxCell id="S5-y5zS6l2NAs_fPD0nN-120" style="edgeStyle=none;curved=1;html=1;exitX=0;exitY=1;exitDx=0;exitDy=0;endArrow=classic;endFill=1;startSize=4;endSize=4;dashed=1;" parent="1" edge="1">
          <mxGeometry relative="1" as="geometry">
            <mxPoint x="230" y="740" as="targetPoint" />
            <mxPoint x="367" y="739" as="sourcePoint" />
          </mxGeometry>
        </mxCell>
        <mxCell id="S5-y5zS6l2NAs_fPD0nN-121" value="Incorrect &lt;br&gt;password" style="text;html=1;align=center;verticalAlign=middle;resizable=0;points=[];autosize=1;strokeColor=none;fillColor=none;" parent="1" vertex="1">
          <mxGeometry x="304.5" y="701" width="70" height="40" as="geometry" />
        </mxCell>
        <mxCell id="S5-y5zS6l2NAs_fPD0nN-122" value="" style="edgeStyle=none;curved=1;html=1;endArrow=none;endFill=1;startSize=4;endSize=4;dashed=1;exitX=0.5;exitY=1;exitDx=0;exitDy=0;entryX=0.5;entryY=1;entryDx=0;entryDy=0;" parent="1" source="S5-y5zS6l2NAs_fPD0nN-84" target="S5-y5zS6l2NAs_fPD0nN-123" edge="1">
          <mxGeometry relative="1" as="geometry">
            <mxPoint x="224.25" y="820" as="targetPoint" />
            <mxPoint x="770" y="819" as="sourcePoint" />
          </mxGeometry>
        </mxCell>
        <mxCell id="S5-y5zS6l2NAs_fPD0nN-123" value="Payment receipt &amp;amp; history" style="text;html=1;align=center;verticalAlign=middle;resizable=0;points=[];autosize=1;strokeColor=none;fillColor=none;" parent="1" vertex="1">
          <mxGeometry x="612.5" y="790" width="160" height="30" as="geometry" />
        </mxCell>
        <mxCell id="S5-y5zS6l2NAs_fPD0nN-124" value="&lt;span style=&quot;&quot;&gt;Maintenance request / tracking&lt;br&gt;&lt;/span&gt;&lt;span style=&quot;&quot;&gt;Check in / out&lt;br&gt;&lt;/span&gt;&lt;span style=&quot;&quot;&gt;Electrical appliances registration&lt;br&gt;&lt;/span&gt;&lt;span style=&quot;&quot;&gt;Room changing / cancellation&lt;/span&gt;&lt;span style=&quot;&quot;&gt;&lt;br&gt;&lt;/span&gt;" style="text;html=1;align=center;verticalAlign=middle;resizable=0;points=[];autosize=1;strokeColor=none;fillColor=none;" parent="1" vertex="1">
          <mxGeometry x="560" y="675" width="200" height="70" as="geometry" />
        </mxCell>
        <mxCell id="S5-y5zS6l2NAs_fPD0nN-125" style="edgeStyle=none;curved=1;html=1;exitX=1;exitY=0.25;exitDx=0;exitDy=0;endArrow=classic;endFill=1;startSize=4;endSize=4;entryX=1;entryY=0.75;entryDx=0;entryDy=0;" parent="1" edge="1">
          <mxGeometry relative="1" as="geometry">
            <mxPoint x="573" y="769" as="targetPoint" />
            <Array as="points">
              <mxPoint x="591.5" y="740" />
              <mxPoint x="601.5" y="750" />
              <mxPoint x="591.5" y="770" />
            </Array>
            <mxPoint x="573.44" y="749" as="sourcePoint" />
          </mxGeometry>
        </mxCell>
      </root>
    </mxGraphModel>
  </diagram>
</mxfile>
